<svg xmlns="http://www.w3.org/2000/svg" xmlns:xlink="http://www.w3.org/1999/xlink" width="48" zoomAndPan="magnify" viewBox="0 0 36 36.000001" height="48" preserveAspectRatio="xMidYMid meet" version="1.0"><defs><clipPath id="c888ed1b50"><path d="M 0.488281 1.75 L 35.511719 1.75 L 35.511719 29 L 0.488281 29 Z M 0.488281 1.75 " clip-rule="nonzero"/></clipPath></defs><g clip-path="url(#c888ed1b50)"><path fill="#ffffff" d="M 33.492188 1.847656 L 33.863281 1.847656 L 34.378906 1.921875 L 34.699219 2.042969 L 34.945312 2.191406 L 35.191406 2.410156 L 35.363281 2.679688 L 35.460938 2.949219 L 35.511719 3.171875 L 35.511719 3.785156 L 35.414062 4.199219 L 35.265625 4.566406 L 35.070312 4.910156 L 34.824219 5.230469 L 34.722656 5.230469 L 34.601562 5.058594 L 34.328125 4.863281 L 34.058594 4.738281 L 33.714844 4.667969 L 33 4.667969 L 32.382812 4.789062 L 31.867188 4.960938 L 31.300781 5.207031 L 30.734375 5.5 L 30.265625 5.792969 L 29.871094 6.0625 L 29.402344 6.40625 L 29.007812 6.726562 L 28.738281 6.945312 L 28.492188 7.167969 L 28.296875 7.339844 L 27.976562 7.632812 L 27.308594 8.292969 L 27.136719 8.492188 L 26.816406 8.832031 L 26.597656 9.101562 L 26.351562 9.371094 L 26.078125 9.714844 L 25.808594 10.035156 L 25.488281 10.453125 L 25.144531 10.894531 L 24.796875 11.359375 L 24.453125 11.847656 L 24.183594 12.242188 L 23.46875 13.296875 L 23.222656 13.6875 L 22.902344 14.175781 L 22.507812 14.816406 L 22.089844 15.5 L 21.667969 16.210938 L 21.277344 16.898438 L 20.929688 17.511719 L 20.585938 18.125 L 20.191406 18.835938 L 19.773438 19.621094 L 19.476562 20.160156 L 19.058594 20.945312 L 18.714844 21.582031 L 18.394531 22.144531 L 18 22.855469 L 17.679688 23.394531 L 17.433594 23.8125 L 17.113281 24.328125 L 16.84375 24.742188 L 16.398438 25.40625 L 16.101562 25.820312 L 15.882812 26.117188 L 15.609375 26.460938 L 15.339844 26.777344 L 15.167969 26.972656 L 14.945312 27.21875 L 14.625 27.539062 L 14.355469 27.757812 L 14.011719 28.003906 L 13.617188 28.199219 L 13.269531 28.296875 L 13.125 28.324219 L 12.804688 28.324219 L 12.410156 28.222656 L 12.164062 28.078125 L 11.964844 27.90625 L 11.71875 27.5625 L 11.546875 27.195312 L 11.421875 26.777344 L 11.351562 26.238281 L 11.351562 25.257812 L 11.421875 24.597656 L 11.546875 23.886719 L 11.769531 22.929688 L 12.039062 21.925781 L 12.433594 20.601562 L 12.925781 19.054688 L 13.34375 17.730469 L 13.640625 16.75 L 13.886719 15.820312 L 14.082031 14.9375 L 14.257812 13.882812 L 14.332031 13.222656 L 14.355469 12.878906 L 14.355469 11.628906 L 14.28125 10.992188 L 14.15625 10.402344 L 13.984375 9.886719 L 13.789062 9.496094 L 13.640625 9.25 L 13.46875 9.03125 L 13.246094 8.785156 L 12.925781 8.539062 L 12.507812 8.320312 L 11.992188 8.148438 L 11.546875 8.074219 L 11.105469 8.050781 L 10.609375 8.074219 L 9.96875 8.171875 L 9.332031 8.34375 L 8.835938 8.515625 L 8.34375 8.734375 L 7.730469 9.054688 L 7.285156 9.324219 L 6.867188 9.617188 L 6.546875 9.863281 L 6.226562 10.132812 L 5.980469 10.351562 L 5.683594 10.625 L 5.488281 10.820312 L 5.316406 11.015625 L 5.019531 11.335938 L 4.75 11.675781 L 4.429688 12.09375 L 4.058594 12.65625 L 3.835938 13.027344 L 3.617188 13.417969 L 3.269531 14.105469 L 2.949219 14.886719 L 2.730469 15.574219 L 2.582031 16.210938 L 2.484375 16.824219 L 2.433594 17.339844 L 2.433594 18.371094 L 2.507812 18.957031 L 2.65625 19.570312 L 2.851562 20.0625 L 3.097656 20.503906 L 3.34375 20.820312 L 3.589844 21.089844 L 3.9375 21.359375 L 4.28125 21.554688 L 4.699219 21.703125 L 5.042969 21.777344 L 5.855469 21.777344 L 6.277344 21.703125 L 6.695312 21.582031 L 7.1875 21.359375 L 7.628906 21.089844 L 7.949219 20.84375 L 8.296875 20.550781 L 8.542969 20.304688 L 8.765625 20.035156 L 9.011719 19.71875 L 9.257812 19.351562 L 9.550781 18.785156 L 9.75 18.273438 L 9.898438 17.757812 L 9.96875 17.339844 L 9.996094 17.121094 L 9.996094 16.652344 L 9.921875 16.1875 L 9.824219 15.894531 L 9.648438 15.574219 L 9.476562 15.378906 L 9.207031 15.207031 L 9.011719 15.132812 L 8.566406 15.132812 L 8.246094 15.230469 L 8 15.355469 L 7.925781 15.402344 L 7.828125 15.402344 L 7.753906 15.183594 L 7.753906 14.914062 L 7.828125 14.71875 L 7.976562 14.546875 L 8.222656 14.375 L 8.542969 14.226562 L 8.863281 14.152344 L 9.503906 14.152344 L 9.921875 14.25 L 10.339844 14.449219 L 10.683594 14.71875 L 10.90625 14.988281 L 11.128906 15.378906 L 11.300781 15.894531 L 11.375 16.285156 L 11.398438 16.53125 L 11.398438 17.144531 L 11.324219 17.683594 L 11.175781 18.246094 L 10.980469 18.761719 L 10.683594 19.324219 L 10.339844 19.839844 L 10.117188 20.132812 L 9.847656 20.453125 L 9.625 20.699219 L 9.183594 21.140625 L 8.910156 21.359375 L 8.542969 21.65625 L 8.171875 21.898438 L 7.679688 22.195312 L 7.0625 22.488281 L 6.546875 22.660156 L 6.003906 22.78125 L 5.363281 22.855469 L 4.945312 22.855469 L 4.453125 22.808594 L 3.910156 22.683594 L 3.46875 22.535156 L 2.949219 22.292969 L 2.507812 21.996094 L 2.238281 21.777344 L 1.992188 21.554688 L 1.792969 21.359375 L 1.523438 21.015625 L 1.226562 20.574219 L 0.929688 20.011719 L 0.734375 19.472656 L 0.585938 18.859375 L 0.511719 18.34375 L 0.488281 18.027344 L 0.488281 17.070312 L 0.539062 16.507812 L 0.660156 15.820312 L 0.808594 15.257812 L 1.03125 14.617188 L 1.351562 13.882812 L 1.671875 13.269531 L 2.015625 12.707031 L 2.382812 12.167969 L 2.605469 11.875 L 2.878906 11.53125 L 3.171875 11.1875 L 3.394531 10.941406 L 3.691406 10.625 L 4.035156 10.28125 L 4.230469 10.109375 L 4.503906 9.863281 L 4.847656 9.59375 L 5.21875 9.300781 L 5.683594 8.980469 L 6.003906 8.761719 L 6.523438 8.441406 L 6.964844 8.195312 L 7.53125 7.902344 L 8.074219 7.65625 L 8.835938 7.363281 L 9.601562 7.117188 L 10.191406 6.96875 L 10.785156 6.871094 L 11.226562 6.824219 L 11.597656 6.800781 L 12.382812 6.800781 L 12.949219 6.847656 L 13.515625 6.945312 L 14.035156 7.09375 L 14.550781 7.3125 L 14.921875 7.535156 L 15.242188 7.78125 L 15.535156 8.050781 L 15.757812 8.292969 L 15.980469 8.613281 L 16.226562 9.054688 L 16.421875 9.519531 L 16.570312 10.011719 L 16.695312 10.597656 L 16.769531 11.308594 L 16.769531 12.683594 L 16.695312 13.441406 L 16.570312 14.277344 L 16.398438 15.132812 L 16.03125 16.605469 L 15.734375 17.660156 L 15.339844 18.910156 L 14.796875 20.527344 L 14.503906 21.410156 L 14.15625 22.464844 L 13.835938 23.589844 L 13.640625 24.472656 L 13.542969 25.160156 L 13.515625 25.40625 L 13.515625 25.894531 L 13.617188 26.191406 L 13.738281 26.3125 L 13.960938 26.335938 L 14.207031 26.214844 L 14.550781 25.871094 L 14.824219 25.527344 L 15.09375 25.160156 L 15.535156 24.5 L 15.90625 23.886719 L 16.226562 23.347656 L 16.523438 22.832031 L 16.84375 22.242188 L 17.1875 21.605469 L 17.628906 20.773438 L 17.925781 20.207031 L 18.171875 19.742188 L 18.589844 18.933594 L 19.035156 18.074219 L 19.378906 17.390625 L 19.625 16.921875 L 20.144531 15.917969 L 20.390625 15.453125 L 20.757812 14.765625 L 21.152344 14.03125 L 21.472656 13.464844 L 21.84375 12.804688 L 22.238281 12.144531 L 22.65625 11.433594 L 22.902344 11.039062 L 23.269531 10.453125 L 23.589844 9.960938 L 23.789062 9.667969 L 24.109375 9.203125 L 24.402344 8.785156 L 24.75 8.320312 L 25.144531 7.804688 L 25.414062 7.460938 L 25.636719 7.191406 L 25.90625 6.871094 L 26.203125 6.527344 L 26.472656 6.234375 L 26.695312 5.988281 L 26.867188 5.816406 L 27.039062 5.621094 L 27.433594 5.230469 L 27.628906 5.058594 L 27.828125 4.863281 L 28.023438 4.691406 L 28.371094 4.394531 L 28.691406 4.125 L 29.082031 3.832031 L 29.402344 3.585938 L 29.996094 3.195312 L 30.511719 2.875 L 31.203125 2.507812 L 31.867188 2.214844 L 32.457031 2.019531 L 33 1.894531 Z M 33.492188 1.847656 " fill-opacity="1" fill-rule="nonzero"/></g></svg>