<?xml version="1.0" encoding="UTF-8"?>
<svg version="1.1" xmlns="http://www.w3.org/2000/svg" width="2048" height="2048">
<path d="M0 0 C675.84 0 1351.68 0 2048 0 C2048 675.84 2048 1351.68 2048 2048 C1372.16 2048 696.32 2048 0 2048 C0 1372.16 0 696.32 0 0 Z " fill="#FEFEFE" transform="translate(0,0)"/>
<path d="M0 0 C17.12275128 15.90356804 27.9189197 40.28993664 29.06396484 63.59619141 C29.1495245 67.07794869 29.15640343 70.55767233 29.13574219 74.0402832 C29.12503031 76.18144142 29.13569704 78.3217578 29.1484375 80.46289062 C29.15715091 89.04863065 28.45688729 97.29608959 26.875 105.75 C26.75463379 106.45632568 26.63426758 107.16265137 26.51025391 107.89038086 C17.63502683 159.61609594 -10.74842791 208.27928489 -43.125 248.75 C-43.785 249.59046875 -44.445 250.4309375 -45.125 251.296875 C-53.40601591 261.78170966 -62.13860179 271.8665929 -71.125 281.75 C-72.11306641 282.85988281 -72.11306641 282.85988281 -73.12109375 283.9921875 C-98.56968057 312.56772733 -98.56968057 312.56772733 -112.83203125 324.7421875 C-115.99337484 327.51038274 -119.05410618 330.38222042 -122.125 333.25 C-127.05110776 337.84064731 -132.00095843 342.3797746 -137.125 346.75 C-138.07503906 347.56726563 -139.02507813 348.38453125 -140.00390625 349.2265625 C-146.11997985 354.46408409 -152.333231 359.54646623 -158.69091797 364.48779297 C-162.47234249 367.43189466 -166.19312715 370.43851752 -169.88916016 373.48901367 C-178.31074825 380.4269362 -187.0105296 386.88456527 -195.91650391 393.18554688 C-198.0164921 394.67313524 -200.10876385 396.17093143 -202.19921875 397.671875 C-221.13327336 411.21781768 -240.63525943 423.90764914 -260.46337891 436.10058594 C-262.93221198 437.63052872 -265.38067558 439.18790596 -267.82421875 440.7578125 C-269.17428328 441.60968553 -270.52452764 442.46127366 -271.875 443.3125 C-272.46482666 443.70107178 -273.05465332 444.08964355 -273.66235352 444.48999023 C-275.296875 445.50390625 -275.296875 445.50390625 -278.125 446.75 C-281.5323007 445.5421798 -283.70772751 443.41534258 -286.23168945 440.88623047 C-287.02964432 440.09135223 -287.82759918 439.296474 -288.6497345 438.47750854 C-289.50395493 437.6161026 -290.35817535 436.75469666 -291.23828125 435.8671875 C-292.12605759 434.97895294 -293.01383392 434.09071838 -293.92851257 433.17556763 C-295.80786635 431.29319196 -297.68520483 429.40904597 -299.55932617 427.52148438 C-301.94117385 425.12275778 -304.32943896 422.73055441 -306.72012043 420.3406353 C-309.02064 418.03977514 -311.31688681 415.73466371 -313.61328125 413.4296875 C-314.46142899 412.58042694 -315.30957672 411.73116638 -316.1834259 410.85617065 C-330.125 396.80443563 -330.125 396.80443563 -330.125 392.75 C-328.28125 391.34765625 -328.28125 391.34765625 -325.625 389.8125 C-320.72124701 386.82515623 -316.13026362 383.60278673 -311.5625 380.125 C-306.50972622 376.28064335 -301.4194484 372.50978591 -296.24511719 368.83032227 C-284.06641141 360.16014546 -272.97860573 350.65551976 -262.05859375 340.46484375 C-259.69920178 338.28138514 -257.31478574 336.1544351 -254.875 334.0625 C-248.45348983 328.49268486 -242.57906699 322.41062665 -237.0546875 315.95703125 C-235.17247361 313.80429674 -233.23243891 311.71412986 -231.27734375 309.62768555 C-219.73825409 297.26294027 -209.78975704 283.60614946 -200.125 269.75 C-199.32425049 268.60217041 -199.32425049 268.60217041 -198.50732422 267.43115234 C-182.11910832 243.68394445 -168.96487329 217.5648696 -161.125 189.75 C-160.75375 188.595 -160.3825 187.44 -160 186.25 C-154.89068773 165.8127509 -153.38964228 139.78662819 -164.1875 120.9375 C-165.6061445 118.75120701 -166.9406326 116.9292342 -168.80859375 115.11328125 C-170.125 113.75 -170.125 113.75 -170.125 111.75 C-170.69863281 111.47929687 -171.27226563 111.20859375 -171.86328125 110.9296875 C-174.125 109.75 -174.125 109.75 -176.10546875 108.3828125 C-192.06452396 97.47981195 -214.06944786 97.68862805 -232.4375 101 C-234.33149782 101.41565998 -236.22562065 101.83160914 -238.11230469 102.27929688 C-240.3315038 102.79829444 -242.5580966 103.26863918 -244.7890625 103.734375 C-246.38044961 104.07178068 -247.97160073 104.41030153 -249.5625 104.75 C-250.2841333 104.9037207 -251.0057666 105.05744141 -251.74926758 105.21582031 C-289.76505977 113.66669024 -326.4551056 134.76717194 -358.125 156.75 C-359.14303711 157.45141113 -359.14303711 157.45141113 -360.18164062 158.16699219 C-378.29072048 170.66538806 -395.30026919 184.31895772 -411.43359375 199.27734375 C-413.58789856 201.25655267 -415.76866709 203.17226257 -418 205.0625 C-426.34927048 212.30903664 -434.29748362 220.33953576 -441.43359375 228.78125 C-443.53655623 231.22904005 -445.74035338 233.57395433 -447.9375 235.9375 C-452.8686887 241.35883698 -457.3898641 247.02844808 -461.75488281 252.90869141 C-462.69378344 254.17048552 -463.63876775 255.42776899 -464.58886719 256.68115234 C-499.9858118 303.42095174 -525.74206916 361.66994895 -518.125 421.375 C-514.41060382 445.86738903 -503.96194348 467.87778472 -488.125 486.75 C-487.63177246 487.34329102 -487.13854492 487.93658203 -486.63037109 488.54785156 C-470.70005918 507.65222939 -452.01144681 523.20354187 -430.34716797 535.48974609 C-428.77961249 536.37875086 -427.21653306 537.27567078 -425.65673828 538.17822266 C-394.03627543 556.40087481 -359.26701058 568.73484992 -325.17195129 581.4826355 C-318.08253185 584.13498081 -311.01062462 586.83272887 -303.94091797 589.53710938 C-301.73050341 590.38245624 -299.51956254 591.22641642 -297.30859375 592.0703125 C-290.707901 594.59240622 -284.116227 597.13133657 -277.56298828 599.77490234 C-274.7191079 600.91234058 -271.8642551 602.0194923 -269.0078125 603.125 C-211.00732945 625.61191032 -148.69247444 650.94376153 -102.3828125 693.6796875 C-100.36024746 695.53428866 -98.29016016 697.30035161 -96.1875 699.0625 C-74.62928661 717.9800487 -58.67879917 744.71032857 -49.01538086 771.5078125 C-48.65995712 772.49152832 -48.30453339 773.47524414 -47.93833923 774.48876953 C-47.66993729 775.23497559 -47.40153534 775.98118164 -47.125 776.75 C-45.67756157 776.71241577 -45.67756157 776.71241577 -44.20088196 776.67407227 C-31.94664863 776.35684308 -19.69217431 776.04970366 -7.4375 775.75 C-5.98093176 775.71436825 -5.98093176 775.71436825 -4.4949379 775.67801666 C24.6331051 774.96860943 53.73687513 774.41757734 82.875 774.75 C82.07943436 783.35569169 80.52368742 791.81344212 79 800.3125 C78.74063869 801.77404478 78.48152271 803.23563312 78.22265625 804.69726562 C76.70633265 813.23382203 75.13486904 821.7588268 73.51904297 830.27709961 C72.93437829 833.4298119 72.39760846 836.58654503 71.875 839.75 C71.11396973 839.76030746 70.35293945 839.77061493 69.56884766 839.78123474 C62.27706443 839.88059845 54.98533774 839.98326541 47.69364929 840.08933926 C43.94796866 840.14372015 40.2022802 840.19697048 36.45654297 840.24731445 C21.20714263 840.45302296 5.96749119 840.66756841 -9.26733398 841.41746521 C-18.8855383 841.883393 -28.49815841 841.84025164 -38.125 841.75 C-38.09881592 842.35956543 -38.07263184 842.96913086 -38.0456543 843.59716797 C-37.02877409 871.4880039 -41.28516063 898.99328796 -49.125 925.75 C-49.466521 926.92175781 -49.466521 926.92175781 -49.81494141 928.1171875 C-59.48235159 960.53350706 -75.62734157 990.59223036 -94.125 1018.75 C-94.68574219 1019.60561523 -95.24648437 1020.46123047 -95.82421875 1021.34277344 C-103.20251482 1032.52851564 -111.14781046 1043.18748297 -119.48339844 1053.67480469 C-121.03755003 1055.639452 -122.57318426 1057.61682922 -124.1015625 1059.6015625 C-129.11299474 1066.09415911 -134.28359161 1072.29093789 -139.86328125 1078.30859375 C-141.80436659 1080.40389313 -143.69484102 1082.52704888 -145.5625 1084.6875 C-150.31037686 1090.13876603 -155.2127675 1095.4473231 -160.125 1100.75 C-160.68799805 1101.35956543 -161.25099609 1101.96913086 -161.83105469 1102.59716797 C-170.25300516 1111.69830799 -178.86862438 1120.5963379 -187.625 1129.375 C-188.54450439 1130.29909668 -189.46400879 1131.22319336 -190.41137695 1132.17529297 C-194.94426437 1136.69786618 -199.52006141 1141.09668297 -204.40234375 1145.24169922 C-206.22634022 1146.83873014 -207.92786654 1148.51944545 -209.625 1150.25 C-213.76772376 1154.44833079 -218.20348866 1158.25433298 -222.68603516 1162.08349609 C-224.45769967 1163.59693 -226.22893488 1165.11086471 -228 1166.625 C-228.91241455 1167.40423828 -228.91241455 1167.40423828 -229.84326172 1168.19921875 C-233.38086318 1171.22847341 -236.86870891 1174.30128834 -240.3125 1177.4375 C-249.20558882 1185.49189101 -258.70059207 1192.83172498 -268.15478516 1200.20947266 C-270.2358819 1201.83669948 -272.31139425 1203.47088808 -274.38671875 1205.10546875 C-284.7747039 1213.265012 -295.35671919 1221.10074144 -306.125 1228.75 C-307.18219238 1229.50361816 -307.18219238 1229.50361816 -308.26074219 1230.27246094 C-313.19780875 1233.79043558 -318.15405505 1237.2800767 -323.125 1240.75 C-323.84703613 1241.25466797 -324.56907227 1241.75933594 -325.31298828 1242.27929688 C-338.04994599 1251.15682486 -351.06534284 1259.56883399 -364.17871094 1267.87792969 C-366.83701067 1269.56701175 -369.48667671 1271.26851451 -372.1328125 1272.9765625 C-383.25544795 1280.12882181 -394.66043478 1286.68512476 -406.21191406 1293.11767578 C-409.04507656 1294.70521555 -411.86436631 1296.31465949 -414.6796875 1297.93359375 C-427.70971393 1305.4114168 -440.95194676 1312.4078885 -454.3203125 1319.25390625 C-459.08106372 1321.69194028 -463.8179143 1324.16747274 -468.53369141 1326.69116211 C-531.18538162 1360.15646789 -600.77193129 1388.1337252 -669.49511719 1406.05273438 C-672.10105874 1406.74365241 -674.69551299 1407.46715749 -677.2890625 1408.203125 C-713.24861981 1418.37313154 -750.90190128 1426.62693469 -788.11254883 1430.48803711 C-790.19745345 1430.73383666 -790.19745345 1430.73383666 -792.51635742 1431.24609375 C-812.93710104 1435.1907278 -835.26214384 1434.00609244 -855.94140625 1434.10348511 C-858.56173185 1434.11759289 -861.18203205 1434.13829637 -863.80224609 1434.16629028 C-890.99698555 1434.43142066 -916.95281201 1431.18725928 -943.125 1423.75 C-943.96369629 1423.51555176 -944.80239258 1423.28110352 -945.66650391 1423.03955078 C-983.45578545 1412.14911957 -1018.89076539 1388.57945337 -1038.375 1353.875 C-1044.64435291 1342.39932683 -1049.56763713 1330.62814873 -1052.125 1317.75 C-1052.26035156 1317.10708008 -1052.39570312 1316.46416016 -1052.53515625 1315.80175781 C-1057.02756419 1293.97715436 -1056.12008587 1272.37593059 -1051.125 1250.75 C-1050.95371582 1249.95609863 -1050.78243164 1249.16219727 -1050.60595703 1248.34423828 C-1043.18051937 1214.15583991 -1024.22303425 1182.27986217 -1003.125 1154.75 C-1002.72104004 1154.22277344 -1002.31708008 1153.69554687 -1001.90087891 1153.15234375 C-992.34733238 1140.73025734 -982.28452399 1128.82120599 -971.60791016 1117.35058594 C-970.00416316 1115.6195742 -968.41369009 1113.8769376 -966.82421875 1112.1328125 C-961.81001256 1106.64988075 -956.86596084 1101.28413403 -951.1484375 1096.51953125 C-948.51661119 1094.21795342 -946.07724439 1091.73888233 -943.625 1089.25 C-939.9451533 1085.52504793 -936.19512548 1081.95344378 -932.2109375 1078.5546875 C-929.67403426 1076.35983863 -927.21678374 1074.0858105 -924.75 1071.8125 C-920.60203592 1068.03336993 -916.36674984 1064.45117243 -911.953125 1060.98828125 C-909.8178021 1059.29830885 -907.70802707 1057.58994296 -905.609375 1055.85546875 C-896.10761356 1048.01621373 -886.33706564 1040.62639795 -876.37207031 1033.38720703 C-874.29032599 1031.8704559 -872.21735719 1030.34277245 -870.1484375 1028.80859375 C-861.2834323 1022.23982703 -852.26742497 1015.92602797 -843.125 1009.75 C-841.60640381 1008.72132813 -841.60640381 1008.72132813 -840.05712891 1007.671875 C-827.21077837 998.97785979 -814.34790596 990.44453922 -800.86425781 982.75878906 C-798.24295754 981.23840547 -795.68799954 979.61624509 -793.125 978 C-782.68203543 971.53654621 -771.87373278 965.68465364 -761.125 959.75 C-760.16190918 959.21745605 -759.19881836 958.68491211 -758.20654297 958.13623047 C-730.69829686 942.96669966 -702.7757054 928.63781731 -674.125 915.75 C-672.4244043 914.98115479 -672.4244043 914.98115479 -670.68945312 914.19677734 C-639.66702467 900.18933544 -608.17340764 887.23124541 -576.125 875.75 C-574.94824707 875.32638184 -573.77149414 874.90276367 -572.55908203 874.46630859 C-546.25517261 865.00674703 -519.7777082 856.04296134 -492.94921875 848.17602539 C-489.83836812 847.2615288 -486.7348218 846.32736886 -483.63671875 845.37060547 C-471.18910548 841.54125058 -458.64979162 838.27455981 -446 835.1875 C-442.26738166 834.27294704 -438.53567366 833.35478209 -434.8046875 832.43359375 C-433.89170395 832.20887894 -432.9787204 831.98416412 -432.03807068 831.75263977 C-427.1423392 830.53724158 -422.28025518 829.24708251 -417.43379211 827.84863281 C-405.6955963 824.46251736 -393.78752048 822.0747646 -381.8125 819.6875 C-379.7114732 819.26294018 -377.61056119 818.83781191 -375.50976562 818.41210938 C-363.14137982 815.913507 -350.75628534 813.50914028 -338.35652161 811.17156982 C-336.13062561 810.75106277 -333.90542221 810.3270639 -331.68041992 809.90185547 C-319.36034625 807.5505062 -307.0210466 805.29349511 -294.5625 803.8125 C-284.40126166 802.59800936 -274.31916639 800.89974156 -264.22070312 799.25244141 C-259.50362555 798.48684632 -254.78326303 797.74247487 -250.0625 797 C-249.25321045 796.87246338 -248.4439209 796.74492676 -247.61010742 796.61352539 C-245.78178031 796.32541678 -243.95339743 796.03766205 -242.125 795.75 C-284.18411718 750.75652581 -355.87053348 727.89436695 -412.7421875 708.65307617 C-414.24265625 708.14417847 -414.24265625 708.14417847 -415.7734375 707.625 C-416.64145996 707.33367188 -417.50948242 707.04234375 -418.40380859 706.7421875 C-420.44080916 705.99946632 -422.44766304 705.1731519 -424.43505859 704.30639648 C-428.38093189 702.5923432 -432.41799474 701.27319996 -436.515625 699.97265625 C-437.30088562 699.72003525 -438.08614624 699.46741425 -438.89520264 699.20713806 C-441.38745649 698.40572966 -443.88109125 697.60874215 -446.375 696.8125 C-456.35667038 693.61965394 -466.30425631 690.41408889 -476.125 686.75 C-478.04015524 686.05473619 -479.95534721 685.3595722 -481.87109375 684.66593933 C-500.26782281 677.99395191 -518.35050987 670.96321693 -536.125 662.75 C-536.98464355 662.3586084 -537.84428711 661.9672168 -538.72998047 661.56396484 C-550.52849173 656.19018143 -561.90556354 650.24311064 -573.125 643.75 C-573.9308252 643.28722656 -574.73665039 642.82445312 -575.56689453 642.34765625 C-592.0655121 632.83331379 -607.68080615 622.19064438 -622.125 609.75 C-622.90359375 609.08226562 -623.6821875 608.41453125 -624.484375 607.7265625 C-627.07780182 605.44671997 -629.60855146 603.11468516 -632.125 600.75 C-632.68203613 600.22696289 -633.23907227 599.70392578 -633.81298828 599.16503906 C-664.2870322 570.3052427 -683.99549819 532.0315683 -685.56152344 489.65455627 C-685.67759704 484.87322278 -685.70075833 480.09507252 -685.6875 475.3125 C-685.68768127 474.2991861 -685.68786255 473.28587219 -685.68804932 472.24185181 C-685.62485098 447.21800552 -682.92680335 422.16220735 -673.82763672 398.67578125 C-672.55890852 395.19846087 -671.61898766 391.62588206 -670.625 388.0625 C-668.31661642 380.0593777 -665.45614681 372.38106191 -662.125 364.75 C-661.72958008 363.83637695 -661.33416016 362.92275391 -660.92675781 361.98144531 C-647.087018 330.27344893 -629.07730126 300.76798216 -607.61572266 273.63769531 C-606.15290268 271.78533304 -604.70531731 269.9220537 -603.26171875 268.0546875 C-593.41588598 255.35155811 -582.9727974 243.35570687 -571.93652344 231.67480469 C-570.11764003 229.74217978 -568.31087537 227.79894842 -566.5078125 225.8515625 C-557.71816624 216.36185591 -548.93965022 206.89800774 -539.0859375 198.4921875 C-536.83868115 196.4956211 -534.73605073 194.38987054 -532.625 192.25 C-529.29379193 188.87899935 -525.87388372 185.7048597 -522.27734375 182.62109375 C-519.74447838 180.41920171 -517.28167478 178.14804174 -514.8125 175.875 C-510.2732504 171.73074035 -505.59041704 167.82421602 -500.80859375 163.96484375 C-498.17791443 161.79367173 -495.64557576 159.54758643 -493.125 157.25 C-487.94984249 152.54531135 -482.56284412 148.14582069 -477.125 143.75 C-475.95235815 142.7860884 -474.78052484 141.82119258 -473.609375 140.85546875 C-458.61335577 128.52231214 -443.19999643 116.75126613 -427.265625 105.65625 C-424.47814198 103.71210539 -421.72125042 101.73350149 -418.984375 99.71875 C-406.99339197 90.89828751 -394.60443981 82.74930189 -382.10400391 74.67724609 C-379.52529602 73.00896876 -376.95374475 71.33069853 -374.38671875 69.64453125 C-345.86743301 50.94676186 -315.9434279 33.67581308 -285.25439453 18.79248047 C-282.97049759 17.67436078 -280.70259674 16.52692735 -278.43359375 15.37890625 C-233.63969946 -6.97354786 -185.84746414 -22.38958528 -136.375 -30 C-135.62613525 -30.11569336 -134.87727051 -30.23138672 -134.10571289 -30.35058594 C-87.61470331 -37.09390883 -36.78126885 -31.34895838 0 0 Z " fill="#2A3141" transform="translate(1478.125,293.25)"/>
<path d="M0 0 C0.65014606 3.33250685 1.2943192 6.66614243 1.9375 10 C2.11990234 10.93457031 2.30230469 11.86914062 2.49023438 12.83203125 C6.94085528 35.97525998 5.75477787 58.98839122 1 82 C0.84515137 82.75667969 0.69030273 83.51335937 0.53076172 84.29296875 C-12.15435004 144.1925441 -50.14866793 197.29164089 -91.328125 241.21044922 C-93.14424419 243.1543969 -94.94716856 245.1101326 -96.75 247.06640625 C-105.19027243 256.18277555 -113.92737759 264.84206911 -123.0859375 273.234375 C-124.94845782 274.95245497 -126.78972742 276.69038462 -128.625 278.4375 C-135.27720596 284.75027005 -142.1132649 290.61516107 -149.38671875 296.19921875 C-152.54928978 298.63043984 -155.63428724 301.14548706 -158.71118164 303.68383789 C-168.20053591 311.50390982 -178.02967521 318.80727533 -188 326 C-188.66483398 326.48227051 -189.32966797 326.96454102 -190.01464844 327.46142578 C-210.96054635 342.62343602 -232.57956132 357.11290575 -255 370 C-255.89170898 370.51578613 -256.78341797 371.03157227 -257.70214844 371.56298828 C-264.42950455 375.44594651 -271.19817092 379.24914468 -278 383 C-278.88397461 383.48936035 -279.76794922 383.9787207 -280.67871094 384.48291016 C-297.66351839 393.81539547 -315.32676426 401.58344172 -333.08691406 409.296875 C-336.17760072 410.63935579 -339.2589466 412.00136556 -342.3359375 413.375 C-381.40041869 430.60425617 -423.1198042 441.94845234 -464.875 450.25 C-466.03628418 450.48420654 -467.19756836 450.71841309 -468.39404297 450.9597168 C-488.76003754 454.8818794 -508.8108652 456.49646258 -529.54711914 456.39111328 C-533.32669729 456.37493925 -537.10521823 456.39111571 -540.88476562 456.41015625 C-576.23187048 456.44032193 -611.93557531 449.47491584 -638.54296875 424.625 C-654.39462018 408.03669696 -659.60620889 387.27823574 -659.55517578 364.91552734 C-658.52064214 325.80781789 -637.11707574 291.35307432 -613 262 C-612.30994873 261.15332764 -612.30994873 261.15332764 -611.60595703 260.28955078 C-604.44230219 251.56309655 -596.66270902 243.47969312 -588.6875 235.5 C-587.75639404 234.56800781 -586.82528809 233.63601563 -585.8659668 232.67578125 C-580.73321198 227.5848084 -575.50710369 222.68244165 -570 218 C-568.99053073 217.12280384 -567.98139223 216.24522682 -566.97265625 215.3671875 C-558.9150245 208.46682635 -550.58987934 201.98083597 -542.11572266 195.60107422 C-540.12231347 194.09256078 -538.14331151 192.56721142 -536.16796875 191.03515625 C-524.88813979 182.3434473 -512.99430106 174.66204354 -501 167 C-499.32417835 165.9219378 -497.64839499 164.84381608 -495.97265625 163.765625 C-485.1673295 156.84588136 -474.1639107 150.32264932 -463 144 C-462.29117676 143.59604004 -461.58235352 143.19208008 -460.85205078 142.77587891 C-446.78581399 134.77216726 -432.39985806 127.38007444 -418 120 C-416.86812256 119.41653809 -416.86812256 119.41653809 -415.71337891 118.82128906 C-369.21173002 94.87545128 -320.4032559 75.98597502 -271 59 C-270.35619385 58.77852295 -269.7123877 58.5570459 -269.04907227 58.32885742 C-244.80561354 50.00085754 -244.80561354 50.00085754 -232.78662109 47.01391602 C-229.47736516 46.1278206 -226.25218192 45.13169878 -223.00123596 44.06044006 C-209.85733074 39.7466693 -196.48201275 36.39625915 -183.0625 33.0625 C-181.834104 32.75563263 -180.60570801 32.44876526 -179.34008789 32.13259888 C-160.21560556 27.36653474 -141.0748636 23.18959301 -121.68408203 19.68505859 C-116.07964697 18.64290851 -110.51028448 17.4480769 -104.9375 16.25 C-97.30054193 14.6241128 -89.66502063 13.19836908 -81.93725586 12.07519531 C-77.16242899 11.37652288 -72.43430443 10.51800271 -67.6953125 9.60546875 C-58.12930163 7.77732586 -48.50866753 6.35655969 -38.875 4.9375 C-37.13928316 4.67930359 -35.4036059 4.42084093 -33.66796875 4.16210938 C-29.53528294 3.54698347 -25.4016136 2.93882648 -21.26745605 2.3336792 C-19.11677886 2.0171852 -16.9670125 1.69510252 -14.81738281 1.37158203 C-13.58084961 1.18837402 -12.34431641 1.00516602 -11.0703125 0.81640625 C-9.47727295 0.57772827 -9.47727295 0.57772827 -7.85205078 0.33422852 C-5.20132887 0.0235935 -2.66541699 -0.06413449 0 0 Z " fill="#FEFEFE" transform="translate(1268,1154)"/>
<path d="M0 0 C2.31 0 4.62 0 7 0 C7 0.66 7 1.32 7 2 C8.98 2 10.96 2 13 2 C13 2.33 13 2.66 13 3 C8.48382401 3.07654536 4.40914783 3.10228696 0 2 C0 1.34 0 0.68 0 0 Z " fill="#4C505B" transform="translate(574,1723)"/>
</svg>
