<?xml version="1.0" encoding="UTF-8"?>
<svg version="1.1" xmlns="http://www.w3.org/2000/svg" width="3250" height="1280">
<path d="M0 0 C18.43735866 14.11742624 28.12123216 34.26980122 31.34179688 56.87158203 C35.55575396 92.29432 30.08793691 130.83718158 16.09765625 163.69140625 C14.91692878 166.47923499 13.86419206 169.30601371 12.80078125 172.140625 C12.37667969 173.22214844 11.95257812 174.30367187 11.515625 175.41796875 C10.77669761 177.31365712 10.04256231 179.21163304 9.35205078 181.12548828 C4.67926208 194.05649389 4.67926208 194.05649389 0.734375 196.47265625 C-1.59076474 196.9914274 -3.5166747 197.17008816 -5.88671875 197.015625 C-6.54671875 197.015625 -7.20671875 197.015625 -7.88671875 197.015625 C-8.37398437 198.10875 -8.86125 199.201875 -9.36328125 200.328125 C-15.18709834 213.12843357 -22.02697797 225.17165562 -29.23681641 237.23583984 C-30.71049457 239.71871934 -32.15634232 242.21422359 -33.5859375 244.72265625 C-38.97709042 254.15557126 -44.9177965 263.04177594 -51.30273438 271.83007812 C-52.93086524 274.07653735 -54.54301 276.33379381 -56.15234375 278.59375 C-68.75901483 296.25317634 -82.25009463 312.99211264 -96.88671875 329.015625 C-97.76199219 329.98371094 -98.63726563 330.95179688 -99.5390625 331.94921875 C-107.30353193 340.51520831 -115.22902963 348.84561847 -124.0234375 356.37109375 C-125.89123668 358.01961252 -127.64127499 359.73866081 -129.38671875 361.515625 C-133.04985171 365.22792753 -136.9307803 368.62021854 -140.88671875 372.015625 C-141.89502928 372.89917155 -142.90280149 373.78333266 -143.91015625 374.66796875 C-162.88767069 391.25417734 -182.95492748 405.28678234 -205.81884766 416.03710938 C-207.99193987 417.06541558 -210.14725024 418.1267873 -212.3046875 419.1875 C-231.78416179 428.56462518 -252.47169936 434.46283684 -273.63671875 438.578125 C-274.92682861 438.82973389 -276.21693848 439.08134277 -277.54614258 439.34057617 C-284.10007403 440.54324746 -290.22477094 441.29681111 -296.88671875 441.015625 C-298.94896284 446.72302893 -300.33616483 451.95953191 -300.88671875 458.015625 C-301.54671875 458.015625 -302.20671875 458.015625 -302.88671875 458.015625 C-303.01949219 458.77488281 -303.15226562 459.53414062 -303.2890625 460.31640625 C-303.46566406 461.31027344 -303.64226562 462.30414062 -303.82421875 463.328125 C-303.99824219 464.31425781 -304.17226562 465.30039062 -304.3515625 466.31640625 C-304.88671875 469.015625 -304.88671875 469.015625 -305.88671875 472.015625 C-306.54671875 472.015625 -307.20671875 472.015625 -307.88671875 472.015625 C-308.04140625 473.500625 -308.04140625 473.500625 -308.19921875 475.015625 C-308.69048899 478.44244234 -309.76078189 481.44543825 -311.00585938 484.67718506 C-312.7044612 489.18650682 -314.19730748 493.76831724 -315.73046875 498.3359375 C-316.48387055 500.5710513 -317.23754293 502.80607391 -317.99145508 505.04101562 C-318.3824942 506.20093018 -318.77353333 507.36084473 -319.17642212 508.5559082 C-357.51495713 622.10888928 -357.51495713 622.10888928 -387.63671875 644.015625 C-394.78227729 646.2142584 -402.3014569 646.1769336 -409.13671875 643.015625 C-423.12132244 634.83338524 -429.19253892 622.7013006 -433.20074081 607.50179672 C-437.67714014 588.91664738 -438.39842045 569.90926375 -438.49609375 550.875 C-438.50457588 549.72836128 -438.51305801 548.58172256 -438.52179718 547.40033722 C-438.56630747 541.32872085 -438.59428584 535.25730963 -438.60742188 529.18554688 C-438.62054528 524.25973472 -438.66215892 519.33550815 -438.73046875 514.41015625 C-439.1315774 484.89718886 -438.1111901 458.18129652 -428.88671875 430.015625 C-428.1462694 427.63109024 -427.41027654 425.24516557 -426.67944336 422.85766602 C-426.36671982 421.84511246 -426.05399628 420.8325589 -425.73179626 419.7893219 C-424.96440433 417.2706031 -424.223259 414.74653448 -423.5 412.21484375 C-412.45528212 373.6743028 -395.0206145 336.73349875 -375.4609375 301.83154297 C-373.78782458 298.8387259 -372.1333604 295.83605921 -370.48046875 292.83203125 C-354.69578259 264.243015 -337.3031821 236.1653568 -317.34765625 210.26953125 C-315.00389955 207.21508123 -312.86702469 204.05265486 -310.76171875 200.828125 C-306.86118074 194.8644925 -302.55940823 189.26048682 -298.16894531 183.65673828 C-296.0585132 180.9556102 -293.97391939 178.2347154 -291.88671875 175.515625 C-291.05608385 174.43612537 -290.22535455 173.35669838 -289.39453125 172.27734375 C-287.69916903 170.07363797 -286.00680521 167.86767119 -284.31640625 165.66015625 C-279.25008447 159.04884758 -274.11207872 152.50227875 -268.88671875 146.015625 C-266.90403627 143.53034637 -264.92374857 141.04535605 -262.97265625 138.53515625 C-260.88671875 136.015625 -260.88671875 136.015625 -258.48828125 133.71484375 C-250.38825984 125.49686086 -250.25258476 116.72179704 -249.20361328 105.77783203 C-248.74597264 101.78881336 -247.89078483 97.92907812 -247.01171875 94.015625 C-241.42087122 67.8037777 -239.21767067 40.68078606 -236.88671875 14.015625 C-227.84678208 10.71762608 -218.77890743 7.64051648 -209.57421875 4.828125 C-207.92196289 4.31475586 -207.92196289 4.31475586 -206.23632812 3.79101562 C-200.15659031 1.92395243 -194.11694683 0.29580885 -187.88671875 -0.984375 C-185.80197494 12.34230692 -185.46278262 25.54853429 -185.26171875 39.015625 C-185.22343496 41.15886822 -185.18437767 43.30209776 -185.14453125 45.4453125 C-185.04969363 50.63530251 -184.96526232 55.82536389 -184.88671875 61.015625 C-184.16498222 60.29069351 -184.16498222 60.29069351 -183.42866516 59.55111694 C-182.79776474 58.91855988 -182.16686432 58.28600281 -181.5168457 57.63427734 C-180.57854668 56.69278336 -180.57854668 56.69278336 -179.62129211 55.73226929 C-177.82992395 53.95941725 -175.99135683 52.27646742 -174.07421875 50.640625 C-171.93402795 48.80152568 -169.82002496 46.95357291 -167.75390625 45.03125 C-159.92453419 37.75922307 -151.45181736 31.38479926 -142.88671875 25.015625 C-142.2618457 24.54946777 -141.63697266 24.08331055 -140.99316406 23.60302734 C-122.46506523 9.85130828 -102.23623307 -1.76633149 -79.88671875 -7.984375 C-79.10554688 -8.21141113 -78.324375 -8.43844727 -77.51953125 -8.67236328 C-50.65585394 -16.31301304 -23.45395964 -16.12261366 0 0 Z " fill="#272E41" transform="translate(2197.88671875,294.984375)"/>
<path d="M0 0 C7.88135271 7.60353137 11.87830987 17.92002855 12.37109375 28.7890625 C12.39455777 30.77590355 12.39520227 32.76312311 12.375 34.75 C12.36364014 36.3287793 12.36364014 36.3287793 12.35205078 37.93945312 C12.16423838 46.90509622 10.80051139 54.62543494 7.9375 63.125 C7.73382813 63.76276367 7.53015625 64.40052734 7.3203125 65.05761719 C-0.2228824 88.49041244 -14.82327615 108.90480436 -31.0625 127.125 C-31.91070312 128.0840625 -32.75890625 129.043125 -33.6328125 130.03125 C-39.0065165 135.99846758 -44.58584638 141.74577081 -50.25 147.4375 C-50.90315186 148.09532471 -51.55630371 148.75314941 -52.22924805 149.4309082 C-70.34971887 167.49204994 -91.14416713 183.83726236 -113.10888672 196.94921875 C-115.08906265 198.14098672 -117.04642164 199.36514198 -119.00390625 200.59375 C-120.25176921 201.35553607 -121.50043243 202.11601326 -122.75 202.875 C-124.39548828 203.88820313 -124.39548828 203.88820313 -126.07421875 204.921875 C-129.0625 206.125 -129.0625 206.125 -131.4453125 205.48583984 C-134.51869787 203.88779413 -136.50062278 202.02678452 -138.92578125 199.5546875 C-139.81201172 198.65878906 -140.69824219 197.76289063 -141.61132812 196.83984375 C-142.52333984 195.90269531 -143.43535156 194.96554687 -144.375 194 C-145.31505572 193.04488395 -146.25580431 192.09044933 -147.19726562 191.13671875 C-149.49258067 188.80609117 -151.78059646 186.46874804 -154.0625 184.125 C-152.21995738 180.00650152 -150.0443761 178.48676161 -146.25 176 C-145.06346605 175.20164798 -143.87861552 174.40078931 -142.6953125 173.59765625 C-141.78700684 172.98301514 -141.78700684 172.98301514 -140.86035156 172.35595703 C-126.16933954 162.29728204 -114.01739864 150.12766227 -103.0625 136.125 C-102.39992188 135.32964844 -101.73734375 134.53429687 -101.0546875 133.71484375 C-84.26531663 113.46883771 -71.97614313 89.00377948 -74.0625 62.125 C-75.07348492 59.01699396 -76.2868067 56.89952078 -78.0625 54.125 C-78.0625 53.465 -78.0625 52.805 -78.0625 52.125 C-78.59875 51.856875 -79.135 51.58875 -79.6875 51.3125 C-82.0625 50.125 -82.0625 50.125 -84.50390625 48.58203125 C-89.49279379 46.53938026 -94.03091088 46.59232469 -99.375 46.625 C-100.44081299 46.62999512 -101.50662598 46.63499023 -102.60473633 46.64013672 C-117.14107944 46.95711841 -129.16483489 51.66821574 -142.0625 58.125 C-143.73892578 58.91003906 -143.73892578 58.91003906 -145.44921875 59.7109375 C-163.38256579 68.26592724 -179.71035657 80.44131257 -194.0625 94.125 C-194.68672852 94.71667969 -195.31095703 95.30835938 -195.95410156 95.91796875 C-220.50243559 119.32799595 -241.03424856 148.19752973 -242.51586914 183.20214844 C-242.87214911 201.71378415 -236.0683812 216.25414933 -223.4296875 229.72265625 C-206.28158924 247.12542923 -185.39749187 256.70871024 -162.90716553 265.42205811 C-160.05659172 266.52650459 -157.2098006 267.64025116 -154.36376953 268.75634766 C-150.61016262 270.22757526 -146.85537475 271.69569929 -143.09912109 273.16015625 C-44.91003408 311.447869 -44.91003408 311.447869 -26.66796875 350.078125 C-24.0625 356.3754417 -24.0625 356.3754417 -24.0625 360.125 C-22.6230603 360.0178064 -22.6230603 360.0178064 -21.15454102 359.90844727 C-8.76372768 359.04993933 3.58426253 359.00861137 16 359.0625 C18.0423166 359.06753074 20.08463441 359.07209083 22.12695312 359.07617188 C27.06383287 359.08703969 32.00065246 359.10421529 36.9375 359.125 C36.42362661 369.31386891 34.84284337 379.1189515 32.9375 389.125 C31.8952124 389.15005615 30.8529248 389.1751123 29.77905273 389.20092773 C25.83707539 389.29654069 21.89521292 389.39635701 17.95336914 389.49731445 C16.26133956 389.54009183 14.5692824 389.58179438 12.87719727 389.62231445 C2.20588183 389.87872992 -8.41794752 390.30972791 -19.0625 391.125 C-19.07667969 392.32511719 -19.09085937 393.52523438 -19.10546875 394.76171875 C-20.03887817 433.92519466 -38.04818033 467.80804861 -63.0625 497.125 C-63.94975298 498.1857513 -64.83644271 499.24697389 -65.72265625 500.30859375 C-77.28958221 514.07798917 -89.49349081 527.30448059 -103.0625 539.125 C-103.56281738 539.56473145 -104.06313477 540.00446289 -104.57861328 540.45751953 C-113.37795159 548.17045135 -122.62502589 555.21534411 -132.0625 562.125 C-132.79694336 562.66447266 -133.53138672 563.20394531 -134.28808594 563.75976562 C-144.37135226 571.15387131 -154.56455427 578.33160542 -165.0625 585.125 C-165.7745459 585.58729004 -166.4865918 586.04958008 -167.22021484 586.52587891 C-223.06346211 622.65690625 -285.40476407 652.60982858 -351.12890625 664.57568359 C-353.83480417 665.08236388 -356.52538092 665.63820935 -359.21875 666.20703125 C-392.84650453 672.88391392 -434.9036768 670.3247013 -464.09375 651.25 C-477.80742201 641.43389793 -487.61762006 627.62585086 -490.78125 610.7734375 C-493.64848866 583.7736068 -485.05410606 558.94834812 -468.2512207 537.94165039 C-466.04231378 535.23839795 -463.79878972 532.56571662 -461.54492188 529.89990234 C-459.57513278 527.54147567 -457.70321984 525.10952678 -455.8125 522.6875 C-446.95609279 511.88660486 -436.70739462 501.81991753 -425.70703125 493.2109375 C-423.27269671 491.2907977 -420.92857991 489.29146997 -418.59130859 487.25512695 C-410.17398347 479.95486017 -401.18611758 473.50739461 -392.0625 467.125 C-391.45245117 466.69364746 -390.84240234 466.26229492 -390.21386719 465.81787109 C-349.93736141 437.45526081 -301.99549837 414.58529096 -254.9375 400.234375 C-250.63719108 398.91807208 -246.34249797 397.58691812 -242.0546875 396.23046875 C-219.51225153 389.1367592 -196.80147444 383.18001543 -173.60888672 378.62744141 C-171.42481519 378.19649038 -169.24528791 377.74922308 -167.06640625 377.29296875 C-156.54236737 375.17456695 -145.91022677 373.8408381 -135.26708984 372.48217773 C-134.00848145 372.32048096 -132.74987305 372.15878418 -131.453125 371.9921875 C-130.31907227 371.84894043 -129.18501953 371.70569336 -128.01660156 371.55810547 C-125.62923427 371.2080898 -123.39120819 370.73176223 -121.0625 370.125 C-119.64715222 370.06043121 -118.22912311 370.03888961 -116.8125 370.0625 C-114.95625 370.0934375 -114.95625 370.0934375 -113.0625 370.125 C-136.58178457 345.08834224 -175.38942955 334.42475381 -206.86904907 323.59481812 C-239.7231513 312.289848 -271.51428384 300.52446544 -297.0625 276.125 C-298.01382813 275.26841797 -298.01382813 275.26841797 -298.984375 274.39453125 C-311.37986756 262.84917203 -318.54921212 245.16355438 -319.34765625 228.40625 C-320.27969742 193.71250461 -309.58497254 162.1025748 -289.0625 134.125 C-288.36898437 133.16078125 -287.67546875 132.1965625 -286.9609375 131.203125 C-284.7114903 128.1349744 -282.40538017 125.12233761 -280.0625 122.125 C-279.33417969 121.18914062 -278.60585938 120.25328125 -277.85546875 119.2890625 C-271.50929534 111.47681026 -264.4832355 104.36202648 -257.375 97.25 C-256.629086 96.50259048 -256.629086 96.50259048 -255.86810303 95.74008179 C-250.1122266 89.98550926 -244.26785579 84.39527899 -238.0625 79.125 C-236.95625128 78.16365722 -235.85075558 77.20144707 -234.74609375 76.23828125 C-207.53798439 52.70301765 -178.36483275 32.84266842 -147.0625 15.125 C-146.29341309 14.68671875 -145.52432617 14.2484375 -144.73193359 13.796875 C-105.46650192 -8.41897429 -40.02256413 -33.15400527 0 0 Z " fill="#272E40" transform="translate(491.0625,303.875)"/>
<path d="M0 0 C1.6751248 0.01005886 3.35025552 0.01917953 5.02539062 0.02734375 C9.07957629 0.04910645 13.1334706 0.08347263 17.1875 0.125 C17.25487048 4.65566478 17.24931699 8.8313693 16.3125 13.28125 C16.13203125 14.1578125 15.9515625 15.034375 15.765625 15.9375 C15.57484375 16.824375 15.3840625 17.71125 15.1875 18.625 C14.99671875 19.5428125 14.8059375 20.460625 14.609375 21.40625 C14.14246547 23.64741577 13.66839308 25.88680083 13.1875 28.125 C12.10202881 28.22989746 12.10202881 28.22989746 10.99462891 28.33691406 C-34.4775342 32.81998356 -75.76209694 47.40510042 -111.8125 76.125 C-112.37388672 76.56924316 -112.93527344 77.01348633 -113.51367188 77.47119141 C-140.29688654 98.84471115 -169.32678058 130.62689942 -173.8125 166.125 C-174.99000447 180.37706015 -174.65773445 196.37849699 -165.28125 208.02734375 C-159.83703772 213.87987195 -153.11513587 217.85330146 -145.0390625 218.36328125 C-118.00613151 219.02637548 -98.95835652 204.18949454 -80.16796875 186.3515625 C-79.04852763 185.27703209 -77.93007727 184.20146879 -76.8125 183.125 C-76.20229004 182.54202148 -75.59208008 181.95904297 -74.96337891 181.35839844 C-66.58677249 173.32181766 -58.99078738 165.05519389 -52.04492188 155.75439453 C-50.90740501 154.25047465 -49.72881039 152.77786171 -48.546875 151.30859375 C-28.44130908 126.17663635 -12.43470607 97.68130833 2.1875 69.125 C6.7182008 69.73143467 10.61726199 70.91354253 14.86328125 72.59375 C15.7792231 72.95430481 15.7792231 72.95430481 16.71366882 73.32214355 C17.99291287 73.82705143 19.27104581 74.3347828 20.5480957 74.84521484 C22.50931462 75.62872119 24.47401786 76.40292051 26.43945312 77.17578125 C36.03600166 80.97350166 36.03600166 80.97350166 37.1875 82.125 C36.68831116 87.60404859 35.67483347 92.84903256 34.375 98.1875 C34.19759277 98.92790527 34.02018555 99.66831055 33.83740234 100.43115234 C32.42279449 106.28094979 30.89651102 112.09789639 29.3203125 117.90625 C28.43676809 121.17103478 27.58523693 124.44327763 26.7421875 127.71875 C26.48550293 128.71374512 26.22881836 129.70874023 25.96435547 130.73388672 C25.46370663 132.67763774 24.96517096 134.62193488 24.46923828 136.56689453 C23.18545992 141.53728691 21.79344312 146.44738773 20.25 151.34375 C17.91882666 158.82145383 16.04558643 166.39527321 14.1875 174 C11.10863787 186.53493772 7.90279486 199.02632589 4.41560364 211.45484924 C1.26421288 222.69582648 -1.63185288 233.99639125 -4.5 245.3125 C-5.22966783 248.18691239 -5.95992637 251.06117142 -6.69136047 253.93513489 C-7.14101894 255.7023417 -7.58964697 257.46981116 -8.03703308 259.2375946 C-9.21996928 263.8910923 -10.46813285 268.51546485 -11.8125 273.125 C-11.13598389 272.84414551 -10.45946777 272.56329102 -9.76245117 272.27392578 C3.49987171 266.78276497 16.79199539 261.43058834 30.25 256.4375 C31.41442627 256.0038916 32.57885254 255.5702832 33.77856445 255.12353516 C41.93132851 252.125 41.93132851 252.125 44.1875 252.125 C44.70033105 254.41442433 45.19773827 256.7056207 45.6875 259 C46.10515625 260.91425781 46.10515625 260.91425781 46.53125 262.8671875 C47.12630397 266.07839556 47.25680144 269.12645844 47.22851562 272.39111328 C47.22259399 273.28081818 47.21667236 274.17052307 47.21057129 275.08718872 C47.199151 276.0959053 47.199151 276.0959053 47.1875 277.125 C46.67036942 277.33051987 46.15323883 277.53603973 45.62043762 277.74778748 C40.11728254 279.93551947 34.61572866 282.12724393 29.11499023 284.32104492 C27.07631579 285.13354273 25.03726754 285.94510336 22.99780273 286.75561523 C18.02996497 288.73024801 13.07006193 290.72098725 8.12207031 292.74487305 C4.16723531 294.35644754 0.19150619 295.85245232 -3.83300781 297.28051758 C-13.49447741 300.53661403 -13.49447741 300.53661403 -20.99584961 307.00415039 C-22.23092228 310.36927213 -22.78323734 313.37834468 -23.1875 316.9375 C-23.63953243 319.43533038 -24.09403174 321.93271537 -24.55078125 324.4296875 C-24.7513916 325.70295898 -24.95200195 326.97623047 -25.15869141 328.28808594 C-26.2118761 334.46876208 -27.80293593 340.49702959 -29.375 346.5625 C-29.9545845 348.88277318 -30.53401454 351.20308496 -31.11328125 353.5234375 C-33.06774286 361.20942203 -35.22239317 368.83166146 -37.453125 376.44140625 C-39.233036 382.52174738 -40.88597475 388.63646754 -42.51220703 394.75952148 C-58.83457484 456.15272214 -81.79927302 519.87675827 -125.8125 567.125 C-127.02588219 568.51644666 -128.23447803 569.91208639 -129.4375 571.3125 C-147.21094624 591.60182219 -170.54463708 606.93938866 -195.8125 616.125 C-196.61945313 616.43050781 -197.42640625 616.73601563 -198.2578125 617.05078125 C-210.036374 621.28845559 -221.79520657 622.61170218 -234.25 622.5 C-235.53970703 622.51160156 -236.82941406 622.52320313 -238.15820312 622.53515625 C-250.44957114 622.49822675 -262.87009483 621.10467866 -273.8125 615.125 C-274.60914063 614.70476563 -275.40578125 614.28453125 -276.2265625 613.8515625 C-292.3496415 604.81664826 -303.8961117 590.26781199 -309.22265625 572.5546875 C-319.10279896 531.8563513 -302.42223665 491.36571082 -281.72021484 456.86743164 C-273.08141257 442.84818844 -262.76587582 430.37720908 -251.8125 418.125 C-250.97847656 417.17882812 -250.14445312 416.23265625 -249.28515625 415.2578125 C-243.17496529 408.44297076 -236.75569647 401.93612425 -230.3125 395.4375 C-229.44625 394.55819824 -228.58 393.67889648 -227.6875 392.77294922 C-221.71033889 386.78791158 -215.43584654 381.38006195 -208.8125 376.125 C-207.58193989 375.12280228 -206.35257491 374.11913328 -205.125 373.11328125 C-181.79502212 354.20073204 -157.429873 338.03707777 -130.8125 324.125 C-129.67699707 323.52977539 -128.54149414 322.93455078 -127.37158203 322.32128906 C-119.53688249 318.21993187 -111.68128816 314.16051323 -103.8125 310.125 C-102.66177002 309.53211182 -102.66177002 309.53211182 -101.48779297 308.92724609 C-92.4138297 304.25994807 -83.19091895 299.9245178 -73.9375 295.625 C-72.77597412 295.08343262 -71.61444824 294.54186523 -70.41772461 293.98388672 C-68.79169312 293.23389404 -68.79169312 293.23389404 -67.1328125 292.46875 C-66.15586426 292.01693359 -65.17891602 291.56511719 -64.17236328 291.09960938 C-61.8125 290.125 -61.8125 290.125 -59.8125 290.125 C-59.70075439 289.46508057 -59.58900879 288.80516113 -59.47387695 288.12524414 C-58.26132993 281.18952392 -56.73598702 274.38448702 -55 267.5625 C-54.73646729 266.51819824 -54.47293457 265.47389648 -54.20141602 264.39794922 C-52.06031578 255.9715174 -49.78045706 247.58949733 -47.40820312 239.22558594 C-43.7560304 226.34718671 -40.27729986 213.4242147 -36.8425293 200.48632812 C-34.4571492 191.51007984 -32.0310614 182.54597576 -29.53930664 173.59863281 C-29.30977295 172.76686523 -29.08023926 171.93509766 -28.84375 171.078125 C-28.64330078 170.35786133 -28.44285156 169.63759766 -28.23632812 168.89550781 C-27.73489838 167.10424712 -27.73489838 167.10424712 -27.8125 165.125 C-28.1842334 165.63248779 -28.5559668 166.13997559 -28.93896484 166.6628418 C-52.38321333 198.64310865 -77.77445396 233.27779403 -110.8125 256.125 C-111.36486328 256.51107422 -111.91722656 256.89714844 -112.48632812 257.29492188 C-125.88732077 266.57956865 -140.1227032 273.63247684 -155.8125 278.125 C-157.34777344 278.60453125 -157.34777344 278.60453125 -158.9140625 279.09375 C-167.04787039 281.27352978 -175.0521768 281.43351296 -183.4375 281.5 C-184.56961914 281.51393799 -185.70173828 281.52787598 -186.86816406 281.54223633 C-204.96693939 281.44092739 -220.41227079 274.70918364 -233.16015625 261.9765625 C-248.84087607 245.11805666 -253.63160645 227.20742621 -253.08984375 204.734375 C-252.79021171 197.31941448 -251.78500692 190.29759968 -249.8125 183.125 C-249.60270508 182.36106934 -249.39291016 181.59713867 -249.17675781 180.81005859 C-242.8266806 158.54936254 -232.47606055 137.77352879 -218.8125 119.125 C-218.38227539 118.53332031 -217.95205078 117.94164062 -217.50878906 117.33203125 C-205.5865621 101.06344988 -192.08597145 86.28996962 -176.8125 73.125 C-176.18778809 72.58286865 -175.56307617 72.0407373 -174.91943359 71.48217773 C-139.42165791 40.87728856 -95.31707811 17.9978947 -49.84472656 6.63525391 C-47.76359096 6.11271986 -45.69047707 5.56449958 -43.6171875 5.01171875 C-28.94158482 1.17083169 -15.12209739 -0.15967151 0 0 Z " fill="#272E41" transform="translate(1486.8125,556.875)"/>
<path d="M0 0 C7.28937145 0.50119924 14.16574874 2.50602668 21.1875 4.4375 C22.34958984 4.75009766 23.51167969 5.06269531 24.70898438 5.38476562 C29.59057725 6.71253643 34.32897555 8.0403204 39 10 C38.29126416 15.01177489 36.29794606 19.42262013 34.375 24.0625 C27.78890751 40.28138347 22.31636072 56.67866587 17.67333984 73.55371094 C17.06630099 75.75912404 16.45137234 77.96207899 15.83203125 80.1640625 C15.03954933 82.98596362 14.25694733 85.81037314 13.48046875 88.63671875 C12.47931487 92.27942825 11.46062273 95.91690172 10.43478394 99.55273438 C1.74443729 126.90255217 1.74443729 126.90255217 -2 155 C-1.5359375 154.21882812 -1.071875 153.43765625 -0.59375 152.6328125 C1.92135542 148.41212575 4.46016659 144.2058385 7 140 C7.87664307 138.544729 7.87664307 138.544729 8.77099609 137.06005859 C23.50174907 112.66047162 39.33497048 89.55547157 58 68 C58.66902344 67.21753906 59.33804688 66.43507813 60.02734375 65.62890625 C71.7309226 52.25669834 84.30854454 39.08418542 99 29 C99.55461914 28.6169873 100.10923828 28.23397461 100.68066406 27.83935547 C118.00705745 15.9744365 135.76513089 6.69055026 157.375 9.28515625 C166.16243371 11.10996607 174.62055773 15.77918385 180 23 C192.14117583 43.10444127 188.5118003 64.99614198 183.31835938 86.87109375 C181.92222902 92.35561686 180.37853757 97.79512098 178.79980469 103.22949219 C177.40600888 108.05757363 176.07902956 112.90377394 174.75 117.75 C174.5039502 118.63059082 174.25790039 119.51118164 174.00439453 120.41845703 C172.40041157 126.23552431 171.10642357 132.06842835 170 138 C170.35602295 137.34217529 170.7120459 136.68435059 171.07885742 136.0065918 C184.70206527 110.95409426 200.36668555 88.53865883 219 67 C219.72574219 66.16082031 220.45148437 65.32164062 221.19921875 64.45703125 C230.93124779 53.42979687 241.27893176 42.91323574 253 34 C254.51207031 32.82050781 254.51207031 32.82050781 256.0546875 31.6171875 C274.37912276 17.67951931 295.44927695 6.62798473 319 9 C331.28058051 11.51546988 339.48900856 18.20232894 347 28 C355.88676363 41.96115825 354.68698619 61.76753986 351.2890625 77.328125 C344.96639776 101.29568774 335.4159571 124.4278082 326 147.296875 C325.50814209 148.49417236 325.01628418 149.69146973 324.50952148 150.92504883 C323.58050081 153.18012229 322.64561628 155.43279396 321.70336914 157.68237305 C317.5163245 167.80416021 313.95232075 178.08819337 312.25 188.9375 C312.13003662 189.69474365 312.01007324 190.4519873 311.88647461 191.23217773 C309.54980972 206.77911756 309.54980972 206.77911756 315 221 C320.25361413 225.95511333 325.28289838 227.36930075 332.3125 227.27734375 C344.5945428 226.0098655 354.02555113 215.69504282 361.54589844 206.8125 C366.49808772 200.6397241 370.99277756 193.95543191 375.09814453 187.19042969 C376.12890625 185.5234375 376.12890625 185.5234375 378 183 C378.99 183 379.98 183 381 183 C383.45689249 187.91378499 382.35517008 195.42999481 382.4050293 200.8918457 C382.42652649 202.65994904 382.46053048 204.42794837 382.50756836 206.19555664 C382.97529921 223.94436101 382.97529921 223.94436101 377.62475586 230.29956055 C377.08858643 230.86070557 376.55241699 231.42185059 376 232 C375.17235504 233.06042502 374.3502944 234.12524372 373.53515625 235.1953125 C355.26120375 256.84691499 334.44549043 277.10065906 305 281 C291.26332439 282.09381479 279.78494339 280.65958632 268.73828125 271.6484375 C259.50112133 262.88870382 255.20228428 251.74492546 254.796875 239.1796875 C254.64637945 228.97091318 255.13968177 219.85995877 258 210 C258.32666459 208.6473516 258.64652549 207.2930488 258.9609375 205.9375 C262.38835141 191.51393141 267.69538712 177.81958736 273 164 C273.7505157 162.03274875 274.50054446 160.06531163 275.25 158.09765625 C275.59651611 157.18910889 275.94303223 156.28056152 276.30004883 155.34448242 C276.97015756 153.58591158 277.63928047 151.82696474 278.30737305 150.06762695 C278.77977417 148.82372192 278.77977417 148.82372192 279.26171875 147.5546875 C279.55997559 146.76932617 279.85823242 145.98396484 280.16552734 145.17480469 C280.89269592 143.27965616 281.64174818 141.39293312 282.39453125 139.5078125 C288.53393221 123.56486017 296.79617394 100.69785232 290.375 83.9375 C287.39146616 78.26562296 283.09361713 74.99946812 277 73 C265.83517863 71.64510919 257.29970712 73.43190824 248.25244141 80.33300781 C244.00851697 83.71589545 239.98205188 87.31515457 236 91 C235.24847656 91.680625 234.49695312 92.36125 233.72265625 93.0625 C188.03231329 136.41693586 160.30311297 210.30161739 143.25390625 269.73046875 C141.96850697 274.19876149 140.50153536 278.60028772 139 283 C133.26466363 282.45494703 128.67779515 280.83946324 123.43359375 278.5078125 C122.63647476 278.16120575 121.83935577 277.814599 121.01808167 277.45748901 C118.48764392 276.35464252 115.9626698 275.23984715 113.4375 274.125 C111.73795762 273.38336383 110.03809058 272.64247119 108.33789062 271.90234375 C89.80831278 263.80831278 89.80831278 263.80831278 88 262 C88.49819867 254.75752974 90.06994139 247.9078702 91.8125 240.875 C92.08312256 239.76697021 92.35374512 238.65894043 92.63256836 237.51733398 C94.64700383 229.3139486 96.75534988 221.14359063 99 213 C99.34691125 211.70457614 99.69324122 210.40899651 100.0390625 209.11328125 C103.64947711 195.71777782 107.8262872 182.49659521 111.97802734 169.26123047 C112.84013175 166.5101577 113.69761308 163.75775957 114.55078125 161.00390625 C116.31151685 155.32751469 118.10637509 149.67507377 120.0625 144.0625 C125.82811965 126.85901141 133.93912583 100.45157959 125.8125 83.125 C123.28010686 78.94511245 120.38612816 76.19306408 116 74 C104.00583974 72.61847369 94.73828103 74.89517704 85.12402344 82.47998047 C57.44595455 105.77109663 38.5643885 138.37707651 22 170 C21.52771973 170.89928223 21.05543945 171.79856445 20.56884766 172.72509766 C5.50429384 201.61991376 -7.65838272 231.85259013 -18.72265625 262.49609375 C-19.06453979 263.43812401 -19.06453979 263.43812401 -19.41333008 264.39918518 C-20.52231621 267.45608767 -21.61798941 270.5164022 -22.69091797 273.58618164 C-23.08037598 274.6714917 -23.46983398 275.75680176 -23.87109375 276.875 C-24.21068115 277.84179688 -24.55026855 278.80859375 -24.90014648 279.8046875 C-26 282 -26 282 -29 283 C-30.89709473 282.48832703 -30.89709473 282.48832703 -33.05664062 281.5847168 C-33.86758179 281.25074387 -34.67852295 280.91677094 -35.51403809 280.57267761 C-36.38596802 280.20193619 -37.25789795 279.83119476 -38.15625 279.44921875 C-39.05492798 279.07521439 -39.95360596 278.70121002 -40.8795166 278.31587219 C-42.78108508 277.52242035 -44.68074172 276.72437349 -46.57861328 275.92211914 C-49.48455941 274.69402541 -52.39591076 273.47959512 -55.30859375 272.26757812 C-57.15397865 271.49558677 -58.9990418 270.72282573 -60.84375 269.94921875 C-61.71567993 269.58455002 -62.58760986 269.21988129 -63.48596191 268.84416199 C-64.29690308 268.50073257 -65.10784424 268.15730316 -65.94335938 267.8034668 C-66.65600952 267.50288864 -67.36865967 267.20231049 -68.10290527 266.8926239 C-70 266 -70 266 -73 264 C-72.25927538 255.65758891 -70.65088504 247.51262049 -69 239.3125 C-68.849935 238.5615506 -68.69987 237.8106012 -68.54525757 237.03689575 C-65.29009156 220.8049422 -61.47974637 204.71552229 -57.57693481 188.62916565 C-56.30914615 183.3725049 -55.13213533 178.09957281 -53.98046875 172.81640625 C-52.22664928 164.80508089 -50.16944084 156.90996905 -48 149 C-47.31960321 146.4536616 -46.64123496 143.90678034 -45.96484375 141.359375 C-45.2890625 138.82291667 -44.61328125 136.28645833 -43.9375 133.75 C-43.59912109 132.47898437 -43.26074219 131.20796875 -42.91210938 129.8984375 C-42.25115692 127.41826773 -41.58893432 124.93843601 -40.92529297 122.45898438 C-40.33235987 120.24244713 -39.74255285 118.02506987 -39.15673828 115.80664062 C-38.90005371 114.84435547 -38.64336914 113.88207031 -38.37890625 112.890625 C-38.04934937 111.64587402 -38.04934937 111.64587402 -37.71313477 110.37597656 C-37 108 -37 108 -36.02905273 105.62695312 C-34.80086494 102.49165046 -33.98830421 99.34092878 -33.15625 96.078125 C-31.19486292 88.54840107 -28.91310779 81.14804178 -26.5 73.75 C-26.28990295 73.10291077 -26.07980591 72.45582153 -25.86334229 71.78912354 C-3.77019582 3.77019582 -3.77019582 3.77019582 0 0 Z " fill="#272E40" transform="translate(2868,553)"/>
<path d="M0 0 C7.691418 2.38229761 15.05603933 5.43158054 22.44140625 8.61572266 C24.51913076 9.5082177 26.60310836 10.38492761 28.6875 11.26171875 C30.01082748 11.82977309 31.33375959 12.39874959 32.65625 12.96875 C33.85056641 13.47857422 35.04488281 13.98839844 36.27539062 14.51367188 C39 16 39 16 40 19 C38.96402634 21.85711031 37.85001193 24.56828548 36.609375 27.3359375 C36.23800415 28.18564117 35.8666333 29.03534485 35.48400879 29.91079712 C34.67418425 31.76119659 33.86002525 33.60970361 33.04211426 35.45654297 C31.28651017 39.42186961 29.55242568 43.39647425 27.81756592 47.37091064 C26.91070869 49.44844631 26.0028552 51.52554735 25.09405518 53.60223389 C20.389139 64.36355586 15.80801145 75.17580659 11.25 86 C10.85548645 86.9356076 10.4609729 87.87121521 10.05450439 88.83517456 C4.39158251 102.26566857 -1.21707654 115.71826283 -6.8059082 129.17971802 C-10.87255558 138.96902281 -15.01424483 148.71990507 -19.25 158.4375 C-33.11866329 190.28639054 -46.54549078 222.29486645 -59.10076904 254.68518066 C-59.99984126 256.99959136 -60.90360641 259.31211108 -61.80908203 261.62402344 C-75.64654587 296.9593618 -88.36900964 332.69678691 -100.9375 368.5 C-101.22899933 369.32893768 -101.52049866 370.15787537 -101.8208313 371.01193237 C-105.73341093 382.14836946 -105.73341093 382.14836946 -109.23266602 393.41992188 C-110.2277339 396.7657308 -111.29945193 400.08567893 -112.375 403.40625 C-112.69392967 404.39147644 -112.69392967 404.39147644 -113.01930237 405.39660645 C-113.90027963 408.11491168 -114.78319747 410.83258516 -115.66601562 413.55029297 C-118.7843979 423.15141306 -118.7843979 423.15141306 -121.8125 432.78125 C-122.04582031 433.53470703 -122.27914062 434.28816406 -122.51953125 435.06445312 C-123.12046111 437.15289057 -123.12046111 437.15289057 -123 440 C-116.25105667 429.48353575 -109.55195631 418.94325855 -103.05419922 408.26928711 C-88.48908931 384.36129657 -72.91058169 360.73825596 -54.43017578 339.640625 C-52.85539985 337.83412205 -51.30005462 336.01193307 -49.74609375 334.1875 C-31.12579491 312.38225676 -4.8871072 288.33720517 25.30712891 285.80664062 C39.4493829 285.04234415 52.94662841 286.13470674 64 296 C73.31398663 306.33071811 74.90811461 317.93878834 74.46875 331.375 C72.70806751 359.11553079 59.76856814 386.27659989 49.60009766 411.80102539 C41.47693379 432.21904854 33.85883849 452.80375656 28 474 C27.49146484 475.77503906 27.49146484 475.77503906 26.97265625 477.5859375 C24.73382306 486.10794771 22.36840675 497.31488314 26.8671875 505.32421875 C29.95130567 509.19348789 32.57375858 510.69483609 37.515625 511.31640625 C49.18693945 511.82172852 56.51939909 506.51591456 65 499 C66.17997104 497.84679119 67.34883986 496.68196978 68.5 495.5 C69.325 494.675 70.15 493.85 71 493 C71.66 493 72.32 493 73 493 C73.268125 492.401875 73.53625 491.80375 73.8125 491.1875 C75.02493496 488.95406717 75.94652273 487.50061801 78 486 C81.54855149 486.4067784 83.22563341 487.86939979 85.671875 490.37890625 C86.66767578 491.38920898 86.66767578 491.38920898 87.68359375 492.41992188 C88.36550781 493.12697266 89.04742188 493.83402344 89.75 494.5625 C90.44738281 495.27341797 91.14476563 495.98433594 91.86328125 496.71679688 C93.5824658 498.47130714 95.29425872 500.23243352 97 502 C95.48157582 506.83713571 92.72714312 510.01926183 89.4375 513.75 C88.62514893 514.67969604 88.62514893 514.67969604 87.79638672 515.62817383 C68.80896969 537.18896677 44.01236745 556.43879854 14.31640625 558.3515625 C2.56996394 558.8378876 -6.79459762 557.27109131 -16.375 549.9375 C-24.77853772 541.91912442 -28.14321393 530.05386824 -28.48242188 518.74584961 C-28.66406059 491.01819568 -17.80222833 466.28354915 -6.58374023 441.46533203 C-2.90470346 433.24681509 0.43622622 424.94386097 3.5625 416.5 C4.17037354 414.86393799 4.17037354 414.86393799 4.79052734 413.19482422 C9.28687831 400.83510513 12.16412657 389.24795201 12.3125 376.0625 C12.34150391 375.20720703 12.37050781 374.35191406 12.40039062 373.47070312 C12.46572342 366.88214219 11.19949242 361.3731961 6.55200195 356.47338867 C0.34100962 351.07724101 -5.02757845 350.21274985 -13.12109375 350.51171875 C-27.93077504 352.37597873 -42.82170025 370.83149742 -51.54980469 381.97949219 C-60.43810443 393.53479474 -68.41336928 405.56096365 -76 418 C-76.75111074 419.21626402 -77.50239953 420.43241811 -78.25390625 421.6484375 C-104.49716035 464.44549869 -124.79987464 509.74982698 -144 556 C-149.74682881 555.40394122 -154.53894166 553.25602312 -159.7734375 550.96484375 C-160.6971817 550.56672989 -161.6209259 550.16861603 -162.57266235 549.75843811 C-165.50951492 548.49102224 -168.44226498 547.21441061 -171.375 545.9375 C-173.37082973 545.07425913 -175.36692075 544.21162206 -177.36328125 543.34960938 C-182.24523601 541.24005853 -187.12385927 539.12295247 -192 537 C-191.5134644 532.13272354 -190.99464593 527.36328914 -189.8359375 522.6015625 C-189.60463135 521.64209717 -189.3733252 520.68263184 -189.13500977 519.6940918 C-188.88420654 518.6812915 -188.63340332 517.66849121 -188.375 516.625 C-188.11066162 515.54065674 -187.84632324 514.45631348 -187.57397461 513.33911133 C-185.3581915 504.30961713 -183.03409266 495.30860153 -180.67944336 486.31445312 C-178.84246904 479.2909352 -177.06196194 472.25593226 -175.32202148 465.20776367 C-172.80688175 455.02016347 -170.19901406 444.88340976 -167.24951172 434.8125 C-165.96471426 430.41604467 -164.73079871 426.01633182 -163.59765625 421.578125 C-140.56615209 331.7862293 -103.54730287 245.65584113 -69.13311768 159.81396484 C-65.71571167 151.28869752 -62.30600911 142.76044471 -58.91015625 134.2265625 C-42.47329287 92.92875433 -24.5464199 52.38607492 -5.7890625 12.09375 C-5.43458038 11.33187881 -5.08009827 10.57000763 -4.71487427 9.78504944 C-3.1834541 6.50209293 -1.64809389 3.22659457 0 0 Z " fill="#272E40" transform="translate(2371,280)"/>
<path d="M0 0 C1.12470703 -0.01611328 2.24941406 -0.03222656 3.40820312 -0.04882812 C14.27218991 -0.05514073 23.88113728 1.93552052 32.1875 9.3125 C38.48758128 16.26291225 42.75109463 23.26826796 45.1875 32.3125 C45.48398438 33.31152344 45.78046875 34.31054688 46.0859375 35.33984375 C52.2914464 59.27944461 48.52208004 92.5202922 39.1875 115.3125 C37.6827969 117.52529868 35.99580963 119.31872271 34.1875 121.3125 C33.34038581 123.37930175 32.66267631 125.42842432 32.05859375 127.578125 C31.1875 129.3125 31.1875 129.3125 29.24267578 130.1628418 C26.63240412 131.62301871 26.34546216 132.63299596 25.43359375 135.44140625 C24.99660156 136.72785034 24.99660156 136.72785034 24.55078125 138.0402832 C24.24527344 138.97573975 23.93976562 139.91119629 23.625 140.875 C19.20600211 153.69328067 13.79705946 165.97790463 8.1875 178.3125 C7.83187988 179.10495117 7.47625977 179.89740234 7.10986328 180.71386719 C-4.72964109 207.08019002 -19.44549327 232.22605683 -36.8125 255.3125 C-37.25835449 255.91143066 -37.70420898 256.51036133 -38.16357422 257.12744141 C-53.03037283 277.08130297 -69.97726063 296.17943758 -89.8125 311.3125 C-90.55371094 311.93253906 -91.29492188 312.55257813 -92.05859375 313.19140625 C-117.90024621 334.76243149 -155.99005174 357.43580478 -190.8125 356.3125 C-188.54379614 346.99694549 -185.34691124 338.0411015 -182.14593506 329.01724243 C-175.80276065 311.11654816 -169.6861895 293.14379454 -163.6875 275.125 C-163.14908478 273.51057007 -163.14908478 273.51057007 -162.59979248 271.86352539 C-158.55056878 259.71515691 -154.58600624 247.54936928 -150.8125 235.3125 C-149.46797475 230.9969184 -148.11208007 226.68506898 -146.75 222.375 C-146.42451172 221.33021484 -146.09902344 220.28542969 -145.76367188 219.20898438 C-143.37826687 211.68433058 -140.61993747 204.54663026 -136.8125 197.625 C-134.45282577 192.98828604 -133.25547939 188.07310409 -131.8828125 183.07421875 C-130.77328697 179.17468195 -129.56668647 175.33351655 -128.25 171.5 C-127.85683594 170.33855469 -127.46367188 169.17710937 -127.05859375 167.98046875 C-126.44177734 166.65982422 -126.44177734 166.65982422 -125.8125 165.3125 C-124.8225 164.9825 -123.8325 164.6525 -122.8125 164.3125 C-121.95102168 162.56238936 -121.95102168 162.56238936 -121.4375 160.3125 C-120.43074431 156.5115048 -119.34472719 152.74358914 -118.20042419 148.98184204 C-114.9217548 138.13007315 -112.20307989 127.15230206 -109.52807617 116.13867188 C-108.75252759 112.94789903 -107.96949332 109.7590312 -107.18554688 106.5703125 C-104.83459574 96.96635885 -102.54110522 87.35364701 -100.4765625 77.68359375 C-100.23165321 76.54895187 -100.23165321 76.54895187 -99.98179626 75.39138794 C-99.10209816 71.17553506 -98.55121525 67.04383592 -98.25 62.75 C-97.03755087 55.28877456 -91.52044892 51.66510605 -85.8125 47.3125 C-84.68325947 46.42134046 -83.55568434 45.528067 -82.4296875 44.6328125 C-80.08215989 42.77330612 -77.72066821 40.93346479 -75.3515625 39.1015625 C-71.91231342 36.42116467 -68.61095164 33.60037717 -65.3125 30.75 C-46.69239843 14.80850031 -25.18314248 -0.07142128 0 0 Z " fill="#FDFDFD" transform="translate(2105.8125,345.6875)"/>
<path d="M0 0 C13.59518941 3.09351615 26.79376694 7.56845727 40 12 C38.59188499 16.91183646 36.43840884 21.28787547 34.16699219 25.83959961 C14.88451557 64.57857139 3.64183799 106.04391828 -6 148.0625 C-6.15397247 148.72575287 -6.30794495 149.38900574 -6.46658325 150.07235718 C-6.90157424 151.95414367 -7.32599978 153.83836291 -7.75 155.72265625 C-8.11351562 157.32765991 -8.11351562 157.32765991 -8.484375 158.96508789 C-9.00632272 162.03721484 -9.09316686 164.89026482 -9 168 C-8.68885254 167.47269287 -8.37770508 166.94538574 -8.05712891 166.40209961 C-6.58402865 163.91134385 -5.10451085 161.42445283 -3.625 158.9375 C-3.13644531 158.10927734 -2.64789062 157.28105469 -2.14453125 156.42773438 C2.22723144 149.09534759 6.94058539 142.01878277 11.7020874 134.93722534 C13.79451927 131.81412442 15.86102989 128.67403087 17.9296875 125.53515625 C26.5987267 112.41070452 35.26708 99.3705259 45 87 C45.72058594 86.06929687 46.44117188 85.13859375 47.18359375 84.1796875 C51.17025563 79.09727644 55.37575275 74.25459776 59.734375 69.48828125 C61.20100388 67.87751816 62.65028091 66.25071015 64.078125 64.60546875 C83.12895932 42.76756793 113.06161337 16.63584345 143 13 C146.72989057 12.76335386 150.45065753 12.66678528 154.1875 12.625 C155.57787476 12.60385132 155.57787476 12.60385132 156.99633789 12.58227539 C169.41412963 12.66987299 180.24394606 17.9343614 189.40625 26.25390625 C200.03930015 37.9033509 200.70277339 51.76051977 200.12548828 66.71191406 C199.85747717 71.59868476 199.11518219 76.24102484 198 81 C197.77828125 82.04929687 197.5565625 83.09859375 197.328125 84.1796875 C192.1781424 105.99423645 181.67986492 126.31901416 171.95288086 146.37475586 C167.98335035 154.57731553 164.13919595 162.8053307 160.59765625 171.203125 C160.27683075 171.96337982 159.95600525 172.72363464 159.62545776 173.50692749 C153.69924197 187.76376351 147.17460668 204.45205035 151.90625 219.97265625 C154.93971135 225.79651313 158.75615069 228.9187169 165 231 C176.30953895 232.28554472 184.11278032 229.62841391 192.99609375 222.64453125 C202.44330861 214.53179876 210.28209683 204.72018937 218 195 C222.72843614 196.57313172 226.3433843 199.20641235 230.3125 202.125 C230.95767578 202.59292969 231.60285156 203.06085938 232.26757812 203.54296875 C233.84848894 204.6905929 235.42472301 205.84465477 237 207 C236.57991198 212.35612231 233.55969629 215.92624846 230.5 220.125 C229.95754639 220.87982666 229.41509277 221.63465332 228.85620117 222.41235352 C224.46322941 228.47526298 219.89348819 234.33005428 215 240 C214.01386719 241.15242188 214.01386719 241.15242188 213.0078125 242.328125 C193.52207388 264.53451391 172.46638895 283.77414684 142 288 C128.60480037 288.77731928 118.40639857 286.36930683 107.58203125 278.16796875 C99.4373417 270.83634632 92.62237203 258.90846237 91.85058594 247.86132812 C91.34926088 237.77956287 91.46036263 227.98536488 94.0625 218.1875 C94.24184082 217.50993652 94.42118164 216.83237305 94.60595703 216.13427734 C98.63739736 202.46313012 105.08373449 189.48677243 111.28094482 176.7003479 C118.35639811 162.06610004 124.77392306 147.41135395 130 132 C130.2791626 131.17749756 130.5583252 130.35499512 130.84594727 129.50756836 C135.03179284 117.05901824 138.27430303 102.63506783 132.33203125 90.18359375 C128.81699162 84.42140269 124.64201259 79.00513588 118 77 C106.1277502 75.60222394 95.91735733 78.905732 86.4375 86.015625 C82.13531113 89.51804799 78.03410067 93.19336106 74 97 C73.35675781 97.57878906 72.71351563 98.15757812 72.05078125 98.75390625 C64.719313 105.62427587 58.95944698 113.95604939 53 122 C52.55366211 122.59586914 52.10732422 123.19173828 51.64746094 123.80566406 C14.55471528 173.42699934 -9.46820017 233.00562353 -30 291 C-35.9682467 290.39848228 -41.18069354 288.70732834 -46.80078125 286.65625 C-47.71836716 286.32709595 -48.63595306 285.99794189 -49.5813446 285.65881348 C-52.49401728 284.61210541 -55.40320121 283.5560444 -58.3125 282.5 C-60.28689913 281.78977983 -62.26150651 281.08013831 -64.23632812 280.37109375 C-67.8349519 279.07560378 -71.43343379 277.77976516 -75.02856445 276.47460938 C-75.74913528 276.2133728 -76.46970612 275.95213623 -77.21211243 275.6829834 C-79 275 -79 275 -81 274 C-80.33597448 268.18355148 -79.39295284 262.48622634 -78.25 256.74609375 C-78.07616791 255.86441025 -77.90233582 254.98272675 -77.72323608 254.07432556 C-77.15313143 251.19450694 -76.57738512 248.31586737 -76 245.4375 C-75.70237762 243.95011322 -75.70237762 243.95011322 -75.39874268 242.43267822 C-69.50679951 213.0718185 -62.7991551 183.9152055 -55 155 C-54.69239746 153.84951172 -54.38479492 152.69902344 -54.06787109 151.51367188 C-40.42585072 100.60007376 -24.46950715 47.02608866 0 0 Z " fill="#272E41" transform="translate(959,550)"/>
<path d="M0 0 C6.77309895 23.53044734 -0.86880306 45.79869101 -11 67 C-11.56944336 68.20269531 -11.56944336 68.20269531 -12.15039062 69.4296875 C-24.65694656 95.47937878 -45.50828539 118.15773544 -68 136 C-69.21827946 137.00523225 -70.43428851 138.01322022 -71.6484375 139.0234375 C-114.73715053 174.76852208 -167.31177492 202.36094152 -223 211 C-224.04148193 211.17587646 -225.08296387 211.35175293 -226.15600586 211.53295898 C-234.46537948 212.85561319 -242.61942414 213.34275607 -251.01391602 213.31567383 C-253.06514914 213.3124959 -255.11495706 213.33616326 -257.16601562 213.36132812 C-270.18485032 213.42488647 -281.26007215 211.62945694 -292 204 C-293.60875 202.88625 -293.60875 202.88625 -295.25 201.75 C-303.01232664 193.98767336 -307.2910628 183.73822176 -307.51953125 172.80908203 C-307.51308594 171.98520996 -307.50664062 171.16133789 -307.5 170.3125 C-307.49355469 169.43964355 -307.48710937 168.56678711 -307.48046875 167.66748047 C-306.97908931 149.72667277 -296.58550761 134.05488906 -285 121 C-284.15566406 120.03449219 -283.31132812 119.06898438 -282.44140625 118.07421875 C-236.66182298 66.45561724 -165.04152813 35.8840085 -99.39892578 18.64355469 C-96.2677466 17.80355995 -93.16680039 16.87140505 -90.0625 15.9375 C-66.62064383 9.18354384 -42.14806439 5.47383917 -18.0625 1.875 C-16.87076172 1.69324219 -15.67902344 1.51148438 -14.45117188 1.32421875 C-13.30326172 1.15277344 -12.15535156 0.98132813 -10.97265625 0.8046875 C-9.94406494 0.64983887 -8.91547363 0.49499023 -7.85571289 0.33544922 C-5.20340124 0.02389273 -2.66703674 -0.06307078 0 0 Z " fill="#FDFDFD" transform="translate(393,703)"/>
<path d="M0 0 C2.12890625 -0.1796875 2.12890625 -0.1796875 5.50390625 0.3203125 C10.743584 4.97780383 13.22600649 10.65550935 13.75390625 17.6171875 C13.91543222 26.70302354 13.91543222 26.70302354 11.50390625 30.3203125 C9.65063477 30.87280273 9.65063477 30.87280273 7.3828125 31.12890625 C6.54000732 31.23356201 5.69720215 31.33821777 4.82885742 31.44604492 C3.91724854 31.54892822 3.00563965 31.65181152 2.06640625 31.7578125 C0.13613556 32.00857175 -1.79355015 32.26387098 -3.72265625 32.5234375 C-4.6962207 32.65427734 -5.66978516 32.78511719 -6.67285156 32.91992188 C-47.37978729 38.69295669 -90.15231763 57.56863987 -121.49609375 84.3203125 C-122.58470703 85.24263672 -122.58470703 85.24263672 -123.6953125 86.18359375 C-126.35114439 88.50575576 -128.93322895 90.89686011 -131.49609375 93.3203125 C-132.15174316 93.93664551 -132.80739258 94.55297852 -133.48291016 95.18798828 C-152.81825413 113.50545557 -168.12934198 133.4795747 -175.49609375 159.3203125 C-175.8621875 160.58617187 -176.22828125 161.85203125 -176.60546875 163.15625 C-180.01345182 177.15729616 -178.13381705 192.9872553 -170.74609375 205.3203125 C-166.3449513 211.37744036 -160.59294447 214.30275394 -153.49609375 216.3203125 C-132.25346918 218.44457496 -113.71843444 208.05447725 -97.43359375 195.5703125 C-92.71212686 191.68890891 -88.44796031 187.38354365 -84.17163086 183.02612305 C-81.37291412 180.176122 -78.57129374 177.4389914 -75.49609375 174.8828125 C-66.1332175 166.9084984 -57.85916224 157.12877965 -50.49609375 147.3203125 C-50.03267578 146.70768555 -49.56925781 146.09505859 -49.09179688 145.46386719 C-36.82352455 129.16547513 -26.79304004 111.8808932 -17.15600586 93.92944336 C-2.48532864 66.64646909 -2.48532864 66.64646909 5.50390625 61.3203125 C15.75635306 62.26929931 24.63565726 70.27266894 31.50390625 77.3203125 C32.11234375 77.88492188 32.72078125 78.44953125 33.34765625 79.03125 C35.284784 82.86623939 34.57042069 86.33234728 33.50390625 90.3203125 C31.72438584 94.62815403 29.56327614 98.70590311 27.37890625 102.8203125 C26.09667953 105.29695547 24.82844342 107.78062568 23.5625 110.265625 C23.06765862 111.2341893 23.06765862 111.2341893 22.56282043 112.22232056 C18.99361986 119.24948843 15.67603516 126.38796412 12.41241455 133.5612793 C11.77537255 134.96133816 11.13592569 136.36030579 10.49383545 137.75805664 C2.04712675 156.16031199 -4.74895149 174.30256192 -5.05859375 194.7578125 C-5.09883667 196.24933838 -5.09883667 196.24933838 -5.13989258 197.77099609 C-5.10358531 204.89079244 -3.50767934 210.38567663 0.50390625 216.3203125 C5.71220434 220.67827621 10.45275869 221.70887306 17.0859375 221.58984375 C29.0530981 220.255863 39.31324374 210.24428507 46.50390625 201.3203125 C47.81055765 199.81521503 49.12295467 198.31508395 50.44140625 196.8203125 C51.02792969 196.15 51.61445313 195.4796875 52.21875 194.7890625 C52.64285156 194.304375 53.06695313 193.8196875 53.50390625 193.3203125 C58.75878081 194.8274467 61.98331319 198.25038448 65.81640625 201.9453125 C66.46158203 202.55632812 67.10675781 203.16734375 67.77148438 203.796875 C69.35514075 205.29841586 70.93223966 206.80624293 72.50390625 208.3203125 C63.89633872 232.74597534 36.97786927 256.89825129 14.50390625 268.3203125 C1.89901618 274.31924035 -13.16902459 276.8477568 -26.87109375 273.1953125 C-37.87715086 269.21833388 -46.06483387 262.98313919 -51.11474609 252.31933594 C-60.34822333 230.4827404 -53.80969495 202.79229887 -46.44921875 181.2421875 C-45.39272025 178.51564711 -45.39272025 178.51564711 -45.49609375 176.3203125 C-46.05554687 177.13371094 -46.615 177.94710937 -47.19140625 178.78515625 C-63.74656747 202.56778355 -83.12973795 223.87945999 -106.0546875 241.625 C-109.10050916 243.99070305 -112.05066789 246.45536487 -114.99609375 248.9453125 C-138.69771107 268.30622665 -167.65990206 280.02360621 -198.49609375 277.3203125 C-212.64454079 275.49614165 -224.53458734 267.82882034 -233.5 256.87109375 C-247.35191185 237.8134958 -249.01963422 216.33453478 -245.72216797 193.40527344 C-236.88398427 142.49045161 -202.48238698 94.41046875 -161.13671875 64.52099609 C-159.44771676 63.28490803 -157.79954014 62.00600551 -156.15234375 60.71484375 C-130.12285646 40.57088836 -98.57924175 25.78930786 -67.49609375 15.3203125 C-66.56168457 15.00513672 -65.62727539 14.68996094 -64.66455078 14.36523438 C-43.52746177 7.35490677 -22.04638437 2.82911349 0 0 Z " fill="#272E40" transform="translate(2722.49609375,561.6796875)"/>
<path d="M0 0 C4.86986453 5.27651465 6.26409447 10.44796595 6.18041992 17.56030273 C6.17075195 19.37208008 6.17075195 19.37208008 6.16088867 21.22045898 C6.02469707 23.87777884 5.68367173 25.96458675 4.99291992 28.49780273 C3.85338867 28.65635742 2.71385742 28.81491211 1.53979492 28.97827148 C-17.38996577 31.72065989 -35.27009525 36.31424866 -53.00708008 43.49780273 C-53.74635742 43.79525391 -54.48563477 44.09270508 -55.24731445 44.39916992 C-100.67571098 62.94341828 -145.2450181 98.25811116 -165.50708008 143.93530273 C-171.69985558 159.35477833 -175.9619402 179.71560239 -170.25708008 195.93530273 C-166.70779359 203.79089135 -162.43223099 209.53476586 -154.37036133 213.11108398 C-142.06577958 217.52287783 -127.52207012 214.8850553 -116.00708008 209.49780273 C-106.02101817 204.67736144 -97.29419518 198.90026505 -89.00708008 191.49780273 C-88.23750977 190.83651367 -87.46793945 190.17522461 -86.67504883 189.49389648 C-81.17894331 184.69050078 -75.99134127 179.58213978 -70.81958008 174.43530273 C-70.15418213 173.77457764 -69.48878418 173.11385254 -68.80322266 172.43310547 C-43.92786652 147.47735663 -26.08411959 116.37736722 -10.06665039 85.26611328 C-0.19084146 66.15310425 -0.19084146 66.15310425 6.99291992 60.49780273 C12.56859765 59.67266652 15.90086051 61.73884577 20.43041992 64.62280273 C21.09203125 65.03296631 21.75364258 65.44312988 22.43530273 65.86572266 C26.99103532 68.73754568 31.13066312 71.7233245 34.99291992 75.49780273 C35.63229492 76.09592773 36.27166992 76.69405273 36.93041992 77.31030273 C38.74257595 81.04121221 38.62539318 84.49832936 37.99291992 88.49780273 C36.38500215 92.87177056 34.39610669 97.02671101 32.32498169 101.19464111 C31.28487424 103.289177 30.26684393 105.39318824 29.25439453 107.5012207 C28.20655872 109.68281754 27.15777128 111.86386871 26.10292053 114.04208374 C2.69250919 158.04692948 2.69250919 158.04692948 0.24291992 205.99780273 C2.43344492 212.24182258 5.51268419 216.70379338 10.99291992 220.49780273 C18.21842568 222.90630465 23.1934828 221.7379648 29.93041992 218.56030273 C36.53464158 215.14310966 41.75645374 210.77698072 46.99291992 205.49780273 C47.91717773 204.59803711 48.84143555 203.69827148 49.79370117 202.77124023 C54.43444802 198.55010088 54.43444802 198.55010088 57.99291992 193.49780273 C58.65291992 193.49780273 59.31291992 193.49780273 59.99291992 193.49780273 C59.99291992 194.15780273 59.99291992 194.81780273 59.99291992 195.49780273 C60.52401367 195.71178711 61.05510742 195.92577148 61.60229492 196.14624023 C64.90109518 198.01124823 67.502837 200.54004515 70.24291992 203.12280273 C70.7972168 203.63842773 71.35151367 204.15405273 71.92260742 204.68530273 C73.28319113 205.95205308 74.63857829 207.22438089 75.99291992 208.49780273 C74.42914556 213.59236325 71.29185754 217.11127127 67.93041992 221.12280273 C66.7388733 222.56148857 65.5474673 224.00029089 64.35620117 225.43920898 C63.77563965 226.13675293 63.19507813 226.83429688 62.59692383 227.55297852 C60.56075195 230.02179817 58.59615588 232.54495492 56.61791992 235.06030273 C42.20366775 252.56332323 22.42714776 271.16720185 -1.00708008 274.49780273 C-14.44673374 275.57999105 -25.30595881 274.2256676 -36.00708008 265.49780273 C-46.32739236 255.61665268 -49.92899404 245.76583963 -50.29272461 231.67480469 C-50.48448373 213.45245847 -46.93406459 196.66205087 -41.51025391 179.33520508 C-40.91903817 177.49381567 -40.91903817 177.49381567 -41.00708008 175.49780273 C-41.55235352 176.23643555 -42.09762695 176.97506836 -42.65942383 177.73608398 C-50.70658248 188.56191964 -59.15829214 198.89037697 -68.3762207 208.74926758 C-70.18255014 210.68593396 -71.97731704 212.63302223 -73.77270508 214.57983398 C-86.25363871 228.05247857 -99.18527845 240.60973009 -114.00708008 251.49780273 C-114.59038086 251.92689941 -115.17368164 252.35599609 -115.7746582 252.7980957 C-138.26724346 269.09966477 -164.906452 279.94932972 -193.00708008 277.49780273 C-197.60376169 276.64888777 -201.71435348 275.33343247 -206.00708008 273.49780273 C-206.9480957 273.0969043 -207.88911133 272.69600586 -208.85864258 272.28295898 C-224.63956492 264.61476433 -232.05827206 251.16553648 -238.02661133 235.44311523 C-243.42906801 219.21422145 -241.17560636 197.92079181 -237.00708008 181.49780273 C-236.83547363 180.8086377 -236.66386719 180.11947266 -236.48706055 179.40942383 C-233.74242901 168.6099487 -229.80594991 158.53769049 -225.00708008 148.49780273 C-224.6182666 147.68311523 -224.22945312 146.86842773 -223.82885742 146.02905273 C-214.41477503 126.45660432 -203.12698766 108.73419882 -188.21801758 92.86108398 C-186.33874745 90.85232351 -184.57461606 88.8011456 -182.81958008 86.68530273 C-143.80560116 42.01976612 -83.15492958 11.51882913 -25.69458008 0.56030273 C-24.04063232 0.24258911 -24.04063232 0.24258911 -22.35327148 -0.08154297 C-4.39312333 -3.28802918 -4.39312333 -3.28802918 0 0 Z " fill="#272E40" transform="translate(787.007080078125,562.502197265625)"/>
<path d="M0 0 C-1.36772607 6.37630039 -2.94301577 12.65480755 -4.6875 18.9375 C-6.37784089 25.04837159 -8.05115685 31.16073718 -9.6328125 37.30078125 C-22.15002688 85.63144364 -42.41478453 137.8765041 -71 179 C-71.57282715 179.84232178 -71.57282715 179.84232178 -72.15722656 180.70166016 C-78.49083532 190.01045961 -85.45883747 198.64314439 -93 207 C-93.74894531 207.83402344 -94.49789063 208.66804688 -95.26953125 209.52734375 C-106.55565088 221.44163331 -122.52667624 232.74390616 -139.43212891 233.34301758 C-149.22437098 233.49446784 -157.33739401 231.63539347 -165.4375 225.75 C-173.50266448 217.09470154 -176.5820977 206.23299105 -176.5 194.625 C-176.49427979 193.66964355 -176.48855957 192.71428711 -176.48266602 191.72998047 C-176.11506923 176.78104433 -171.30709957 163.21480923 -164.88964844 149.85253906 C-164.03574161 148.07442572 -163.208655 146.28350771 -162.3828125 144.4921875 C-155.51842089 130.07368071 -146.50885035 116.95525764 -136.36523438 104.65771484 C-135.48216084 103.58545639 -134.60539245 102.50796037 -133.73632812 101.42431641 C-126.69735632 92.64756412 -118.86374111 84.65554698 -110.9375 76.6875 C-110.43070709 76.17544006 -109.92391418 75.66338013 -109.40176392 75.13580322 C-102.60624304 68.28575556 -95.58059728 61.98996295 -88 56 C-86.68010916 54.92164965 -85.36101841 53.84231876 -84.04296875 52.76171875 C-64.08761196 36.72607185 -42.20319408 22.70220561 -20 10 C-18.73784668 9.27635254 -18.73784668 9.27635254 -17.45019531 8.53808594 C-14.93017188 7.09956072 -12.40466937 5.67148621 -9.875 4.25 C-8.72692871 3.60297119 -8.72692871 3.60297119 -7.55566406 2.94287109 C-2.24116355 0 -2.24116355 0 0 0 Z " fill="#FDFDFD" transform="translate(1417,881)"/>
<path d="M0 0 C0.33 0 0.66 0 1 0 C0.35631394 7.85649694 -1.25759202 15.45003223 -2.95629883 23.13110352 C-3.43992107 25.32347528 -3.91273758 27.51799686 -4.38476562 29.71289062 C-4.69206486 31.11732845 -4.99998544 32.5216305 -5.30859375 33.92578125 C-5.58501709 35.18817627 -5.86144043 36.45057129 -6.14624023 37.7512207 C-6.85855973 40.46178275 -7.50126561 42.64546341 -9 45 C-11.67790463 45.83886169 -14.1737941 45.81766414 -17 46 C-19.58543822 53.65520815 -21.54920678 61.29872946 -23.25 69.1875 C-32.23604095 110.06483126 -48.69790788 149.74038342 -63.296875 188.88671875 C-63.74901367 190.09932373 -64.20115234 191.31192871 -64.66699219 192.5612793 C-66.03176498 196.08194317 -67.49214032 199.53872636 -69 203 C-72.87291872 201.70902709 -73.40234904 200.19088359 -75.5 196.75 C-76.0878125 195.79609375 -76.675625 194.8421875 -77.28125 193.859375 C-77.8484375 192.91578125 -78.415625 191.9721875 -79 191 C-79.5465625 190.13890625 -80.093125 189.2778125 -80.65625 188.390625 C-85.98625487 178.90817447 -83.14602447 163.70169652 -82.1875 153.25 C-82.11748779 152.41726563 -82.04747559 151.58453125 -81.9753418 150.7265625 C-81.48097846 145.88446333 -80.51489892 142.27188309 -78 138 C-77.01 138 -76.02 138 -75 138 C-74.89042969 137.18660156 -74.78085938 136.37320313 -74.66796875 135.53515625 C-71.16145337 116.97728244 -61.37727471 99.73411348 -53 83 C-52.6903833 82.29810547 -52.3807666 81.59621094 -52.06176758 80.87304688 C-51 79 -51 79 -49.04541016 77.04614258 C-46.89917597 74.89913987 -45.67920908 72.94148739 -44.2734375 70.26171875 C-43.7990625 69.35873047 -43.3246875 68.45574219 -42.8359375 67.52539062 C-42.35382813 66.58888672 -41.87171875 65.65238281 -41.375 64.6875 C-40.88515625 63.76259766 -40.3953125 62.83769531 -39.890625 61.88476562 C-37.32617182 56.95555028 -35.51658925 52.35448858 -34 47 C-32.58003274 44.00082015 -30.95999622 41.129206 -29.3125 38.25 C-28.86769287 37.46375244 -28.42288574 36.67750488 -27.96459961 35.86743164 C-17.97127725 18.32375908 -17.97127725 18.32375908 -14 17 C-12.68 18.32 -11.36 19.64 -10 21 C-6.7 14.07 -3.4 7.14 0 0 Z " fill="#FAFAFB" transform="translate(1933,487)"/>
<path d="M0 0 C2.11187962 2.76760319 3.88039941 5.51463416 5.5625 8.5625 C13.25776917 21.27560893 21.72073332 27.19807741 35 33 C35.99 33.495 35.99 33.495 37 34 C36.69387531 38.48982876 35.67010807 42.04474944 33.88671875 46.1796875 C31.76640866 51.17007657 29.70500817 56.17846262 27.6875 61.2109375 C21.6029741 76.348583 15.47222657 91.46074045 9 106.4375 C8.24589844 108.19102783 8.24589844 108.19102783 7.4765625 109.97998047 C3.92530568 118.13589271 0.04424132 126.07977813 -4 134 C-4.66 134 -5.32 134 -6 134 C-7.50854892 131.24098939 -8.34562547 128.87403605 -8.81640625 125.76953125 C-9.00299805 124.56393555 -9.00299805 124.56393555 -9.19335938 123.33398438 C-9.31517578 122.50189453 -9.43699219 121.66980469 -9.5625 120.8125 C-9.68818359 119.99974609 -9.81386719 119.18699219 -9.94335938 118.34960938 C-11.50712947 108.05820092 -12.23727917 97.93258786 -12.51757812 87.52734375 C-12.67469745 83.07464147 -12.91627467 78.91549171 -14.03515625 74.59375 C-16.67022299 63.6645028 -14.56140918 53.04202671 -12 42.3125 C-11.68861248 40.96869369 -11.37733498 39.62486189 -11.06616211 38.28100586 C-8.0172076 25.32880646 -4.1573625 12.6381866 0 0 Z " fill="#FBFBFB" transform="translate(1815,695)"/>
<path d="M0 0 C0.33 0 0.66 0 1 0 C0.35631394 7.85649694 -1.25759202 15.45003223 -2.95629883 23.13110352 C-3.43992107 25.32347528 -3.91273758 27.51799686 -4.38476562 29.71289062 C-4.69206486 31.11732845 -4.99998544 32.5216305 -5.30859375 33.92578125 C-5.58501709 35.18817627 -5.86144043 36.45057129 -6.14624023 37.7512207 C-6.85900767 40.46348731 -7.48557491 42.65240768 -9 45 C-11.1640625 45.609375 -11.1640625 45.609375 -13.625 45.75 C-14.85089844 45.83507812 -14.85089844 45.83507812 -16.1015625 45.921875 C-16.72804688 45.94765625 -17.35453125 45.9734375 -18 46 C-17.85915204 44.20793453 -17.71216299 42.41635083 -17.5625 40.625 C-17.48128906 39.62726562 -17.40007812 38.62953125 -17.31640625 37.6015625 C-17 35 -17 35 -16 33 C-16.99 32.67 -17.98 32.34 -19 32 C-19 31.34 -19 30.68 -19 30 C-23.57962746 31.46465563 -25.12058736 35.14220969 -27.25 39.125 C-27.61351562 39.78371094 -27.97703125 40.44242188 -28.3515625 41.12109375 C-29.24423736 42.74200336 -30.12345675 44.37031036 -31 46 C-31.33 45.34 -31.66 44.68 -32 44 C-30.91138683 41.60807494 -29.76949855 39.35657051 -28.5 37.0625 C-28.13559814 36.39460449 -27.77119629 35.72670898 -27.39575195 35.03857422 C-18.22605584 18.40868528 -18.22605584 18.40868528 -14 17 C-12.68 18.32 -11.36 19.64 -10 21 C-6.7 14.07 -3.4 7.14 0 0 Z " fill="#ABAAB4" transform="translate(1933,487)"/>
<path d="M0 0 C0.99 0.33 1.98 0.66 3 1 C5.3406065 0.72230092 7.67624308 0.39460023 10 0 C8.65150163 4.35970831 6.95092154 8.31341438 4.875 12.375 C4.33617188 13.43460937 3.79734375 14.49421875 3.2421875 15.5859375 C2.83226563 16.38257813 2.42234375 17.17921875 2 18 C-1.3 18 -4.6 18 -8 18 C-5.36 12.06 -2.72 6.12 0 0 Z " fill="#808392" transform="translate(2190,490)"/>
<path d="M0 0 C0.33 0 0.66 0 1 0 C0.36573276 6.42033773 -0.58342173 12.68013993 -1.875 19 C-2.11669922 20.28583984 -2.11669922 20.28583984 -2.36328125 21.59765625 C-2.52957031 22.41105469 -2.69585938 23.22445313 -2.8671875 24.0625 C-3.01269043 24.79597656 -3.15819336 25.52945313 -3.30810547 26.28515625 C-3.65059326 27.13400391 -3.65059326 27.13400391 -4 28 C-4.99 28.33 -5.98 28.66 -7 29 C-7 29.99 -7 30.98 -7 32 C-8.98 32 -10.96 32 -13 32 C-11.66466555 24.28562807 -8.8481913 17.92355103 -5.375 10.9375 C-4.859375 9.88111328 -4.34375 8.82472656 -3.8125 7.73632812 C-2.55016921 5.15322531 -1.27923727 2.57476039 0 0 Z " fill="#E6E6EC" transform="translate(1933,487)"/>
<path d="M0 0 C0.99 0 1.98 0 3 0 C2.54464901 1.56337173 2.08557224 3.12565849 1.625 4.6875 C1.36976562 5.55761719 1.11453125 6.42773438 0.8515625 7.32421875 C0 10 0 10 -1.03662109 12.31469727 C-2.09437825 15.26306802 -2.25831291 17.51627524 -2.265625 20.640625 C-2.26820312 21.71183594 -2.27078125 22.78304687 -2.2734375 23.88671875 C-2.26570313 24.99660156 -2.25796875 26.10648438 -2.25 27.25 C-2.25773437 28.34441406 -2.26546875 29.43882812 -2.2734375 30.56640625 C-2.2529817 39.10670084 -1.51007096 46.75141946 2.4375 54.4375 C2.84871094 55.26121094 3.25992187 56.08492187 3.68359375 56.93359375 C5.33037737 59.51860423 7.29016315 60.64508157 10 62 C9.67 62.99 9.34 63.98 9 65 C5.12708128 63.70902709 4.59765096 62.19088359 2.5 58.75 C1.9121875 57.79609375 1.324375 56.8421875 0.71875 55.859375 C0.1515625 54.91578125 -0.415625 53.9721875 -1 53 C-1.5465625 52.13890625 -2.093125 51.2778125 -2.65625 50.390625 C-7.98625487 40.90817447 -5.14602447 25.70169652 -4.1875 15.25 C-4.11748779 14.41726563 -4.04747559 13.58453125 -3.9753418 12.7265625 C-3.48097846 7.88446333 -2.51489892 4.27188309 0 0 Z " fill="#BCBEC5" transform="translate(1855,625)"/>
<path d="M0 0 C0.33 0 0.66 0 1 0 C1.13277344 1.13179687 1.26554687 2.26359375 1.40234375 3.4296875 C1.5805342 4.91148179 1.75893029 6.39325136 1.9375 7.875 C2.02451172 8.62136719 2.11152344 9.36773438 2.20117188 10.13671875 C2.63326063 14.1953231 2.63326063 14.1953231 4 18 C4.0716735 20.55157655 4.09308442 23.07472971 4.0625 25.625 C4.05798828 26.33140625 4.05347656 27.0378125 4.04882812 27.765625 C4.03703875 29.51045275 4.01910324 31.255237 4 33 C3.34 33 2.68 33 2 33 C1.67 31.02 1.34 29.04 1 27 C0.34 27 -0.32 27 -1 27 C-1.33 27.99 -1.66 28.98 -2 30 C-2.22102569 19.7468639 -1.9679704 10.10341946 0 0 Z " fill="#505565" transform="translate(1799,756)"/>
<path d="M0 0 C0 1.32 0 2.64 0 4 C-0.66 4 -1.32 4 -2 4 C-2.13277344 4.75925781 -2.26554687 5.51851562 -2.40234375 6.30078125 C-2.57894531 7.29464844 -2.75554687 8.28851562 -2.9375 9.3125 C-3.11152344 10.29863281 -3.28554687 11.28476562 -3.46484375 12.30078125 C-4 15 -4 15 -5 18 C-5.66 18 -6.32 18 -7 18 C-7.12375 19.051875 -7.2475 20.10375 -7.375 21.1875 C-7.91140782 24.45958771 -8.63880035 27.00536076 -10 30 C-10.33 30 -10.66 30 -11 30 C-11.36311189 20.51874515 -10.50364455 11.48763781 -6 3 C-2.80645161 0 -2.80645161 0 0 0 Z " fill="#585C6D" transform="translate(1897,749)"/>
<path d="M0 0 C1.9375 0.125 1.9375 0.125 4 1 C5.375 3.25 5.375 3.25 6 6 C5.125 8.8125 5.125 8.8125 4 11 C3.731875 10.360625 3.46375 9.72125 3.1875 9.0625 C2.11332248 6.66868314 2.11332248 6.66868314 -1 6 C-5.71657989 13.63750753 -10.40458041 21.28874668 -15 29 C-15.33 28.34 -15.66 27.68 -16 27 C-14.91140997 24.60812579 -13.7690374 22.35675707 -12.5 20.0625 C-11.95557251 19.06065674 -11.95557251 19.06065674 -11.40014648 18.03857422 C-3.29551969 3.29551969 -3.29551969 3.29551969 0 0 Z " fill="#858894" transform="translate(1917,504)"/>
<path d="M0 0 C0.33 0 0.66 0 1 0 C1 9.24 1 18.48 1 28 C-0.65 28.33 -2.3 28.66 -4 29 C-3.37514309 19.21775739 -1.68656475 9.64205883 0 0 Z " fill="#A3A5AD" transform="translate(1759,772)"/>
<path d="M0 0 C-0.28109113 1.64767247 -0.57518526 3.29313145 -0.875 4.9375 C-1.03742188 5.85402344 -1.19984375 6.77054688 -1.3671875 7.71484375 C-1.57601563 8.46894531 -1.78484375 9.22304688 -2 10 C-5.17005342 11.58502671 -8.49124878 11.60385067 -12 12 C-11.67583298 8.84433328 -11.20172624 5.94684173 -10 3 C-6.9948004 0.60176189 -3.82113761 0 0 0 Z " fill="#9596A3" transform="translate(1927,521)"/>
<path d="M0 0 C-1.875 6.875 -1.875 6.875 -3 8 C-4.68608966 8.07205511 -6.37500659 8.08386068 -8.0625 8.0625 C-8.98160156 8.05347656 -9.90070312 8.04445313 -10.84765625 8.03515625 C-11.55792969 8.02355469 -12.26820313 8.01195312 -13 8 C-12.43457996 6.67968405 -11.84693528 5.3688699 -11.25 4.0625 C-10.92515625 3.33160156 -10.6003125 2.60070312 -10.265625 1.84765625 C-9 0 -9 0 -7.03125 -0.78125 C-4.51362917 -1.0523784 -2.44409021 -0.61102255 0 0 Z " fill="#A2A4B1" transform="translate(2195,500)"/>
<path d="M0 0 C1.37478516 0.01740234 1.37478516 0.01740234 2.77734375 0.03515625 C3.69644531 0.04417969 4.61554687 0.05320312 5.5625 0.0625 C6.27277344 0.07410156 6.98304688 0.08570313 7.71484375 0.09765625 C6.72484375 2.40765625 5.73484375 4.71765625 4.71484375 7.09765625 C3.72484375 7.09765625 2.73484375 7.09765625 1.71484375 7.09765625 C1.05484375 7.75765625 0.39484375 8.41765625 -0.28515625 9.09765625 C-1.93515625 8.10765625 -3.58515625 7.11765625 -5.28515625 6.09765625 C-2.98903326 0.12773646 -2.98903326 0.12773646 0 0 Z " fill="#D1D1D9" transform="translate(2184.28515625,507.90234375)"/>
<path d="M0 0 C0.33 0.66 0.66 1.32 1 2 C0.071875 2.474375 -0.85625 2.94875 -1.8125 3.4375 C-6.05426269 6.28852082 -6.82756041 10.21370911 -8 15 C-8.5690392 18.51121182 -8.90404166 22.01797053 -9.1875 25.5625 C-9.26935547 26.47580078 -9.35121094 27.38910156 -9.43554688 28.33007812 C-9.63337481 30.55273313 -9.82135324 32.77573555 -10 35 C-10.33 35 -10.66 35 -11 35 C-11.48657675 10.18458574 -11.48657675 10.18458574 -7 3 C-4.75275943 1.63741974 -2.48275624 0.91953935 0 0 Z " fill="#363C4E" transform="translate(1896,747)"/>
<path d="M0 0 C0.33 0 0.66 0 1 0 C-0.01252184 11.51077461 -0.01252184 11.51077461 -2 17 C-5.125 19 -5.125 19 -8 20 C-7.45318976 14.99399078 -5.75859667 11.02818933 -3.4375 6.625 C-3.10814453 5.98433594 -2.77878906 5.34367187 -2.43945312 4.68359375 C-1.63360518 3.11861368 -0.81781507 1.55875979 0 0 Z " fill="#DDE0E8" transform="translate(1933,487)"/>
<path d="M0 0 C-1.45745424 3.36335594 -3.31117854 5.54534005 -5.9140625 8.109375 C-6.67460938 8.86347656 -7.43515625 9.61757813 -8.21875 10.39453125 C-9.0128125 11.17183594 -9.806875 11.94914063 -10.625 12.75 C-11.42679688 13.54277344 -12.22859375 14.33554687 -13.0546875 15.15234375 C-15.03202846 17.10614493 -17.01388909 19.05512103 -19 21 C-19.99 20.67 -20.98 20.34 -22 20 C-19.19469153 17.1453424 -16.38292304 14.29722769 -13.56494141 11.45507812 C-12.60675044 10.48681462 -11.65036018 9.51676574 -10.69580078 8.54492188 C-9.3253618 7.1502903 -7.94793633 5.76253479 -6.5703125 4.375 C-5.74289551 3.53710938 -4.91547852 2.69921875 -4.06298828 1.8359375 C-2 0 -2 0 0 0 Z " fill="#343947" transform="translate(59,804)"/>
<path d="M0 0 C0.33 0 0.66 0 1 0 C3.83234013 15.08895488 4.36912647 29.6670544 4 45 C3.67 45 3.34 45 3 45 C2.98018066 44.35039307 2.96036133 43.70078613 2.93994141 43.03149414 C2.84372067 40.04147478 2.73444101 37.05206352 2.625 34.0625 C2.5940625 33.04091797 2.563125 32.01933594 2.53125 30.96679688 C2.3197474 25.45010404 1.7613564 20.38064362 0.43212891 15.02563477 C-0.21692527 11.98314747 -0.19026299 9.03749184 -0.125 5.9375 C-0.10695313 4.81214844 -0.08890625 3.68679688 -0.0703125 2.52734375 C-0.04710937 1.69332031 -0.02390625 0.85929688 0 0 Z " fill="#C7C9D0" transform="translate(1800,752)"/>
<path d="M0 0 C-0.33 2.31 -0.66 4.62 -1 7 C-4.3 7 -7.6 7 -11 7 C-10.75 4.625 -10.75 4.625 -10 2 C-6.88390372 -0.42363044 -3.82627315 -0.17392151 0 0 Z " fill="#434858" transform="translate(1925,531)"/>
<path d="M0 0 C0.99 0 1.98 0 3 0 C4.63945963 3.27891925 4.12030178 6.90613534 4.09765625 10.5078125 C4.0962413 11.34843231 4.09482635 12.18905212 4.09336853 13.05514526 C4.08776237 15.74513275 4.07520886 18.43503759 4.0625 21.125 C4.05748579 22.94661338 4.05292275 24.76822807 4.04882812 26.58984375 C4.03779094 31.05992777 4.0205222 35.52994986 4 40 C3.67 40 3.34 40 3 40 C3 27.79 3 15.58 3 3 C2.01 3.66 1.02 4.32 0 5 C-0.99 4.67 -1.98 4.34 -3 4 C-1.6875 2 -1.6875 2 0 0 Z " fill="#4A5264" transform="translate(3246,736)"/>
<path d="M0 0 C2.0625 0.9375 2.0625 0.9375 4 3 C4.26141551 7.7595652 3.29178184 11.84259411 1 16 C1.33 13.69 1.66 11.38 2 9 C1.01 8.67 0.02 8.34 -1 8 C-1 7.34 -1 6.68 -1 6 C-1.99 6.33 -2.98 6.66 -4 7 C-2.92598892 4.08482708 -2.22189824 2.22189824 0 0 Z " fill="#D5D4DA" transform="translate(1915,511)"/>
<path d="M0 0 C0.33 0 0.66 0 1 0 C1.13277344 1.13179687 1.26554687 2.26359375 1.40234375 3.4296875 C1.5805342 4.91148179 1.75893029 6.39325136 1.9375 7.875 C2.06801758 8.99455078 2.06801758 8.99455078 2.20117188 10.13671875 C2.63326063 14.1953231 2.63326063 14.1953231 4 18 C4.07033769 19.87379605 4.0843022 21.75001102 4.0625 23.625 C4.05347656 24.62789062 4.04445313 25.63078125 4.03515625 26.6640625 C4.02355469 27.43492187 4.01195312 28.20578125 4 29 C3.67 29 3.34 29 3 29 C2.51171875 27.01432292 2.0234375 25.02864583 1.53515625 23.04296875 C1.08989295 21.34316798 0.55566015 19.66698046 0 18 C-0.08021999 16.59175107 -0.10765977 15.18002769 -0.09765625 13.76953125 C-0.09282227 12.56586914 -0.09282227 12.56586914 -0.08789062 11.33789062 C-0.07951172 10.50451172 -0.07113281 9.67113281 -0.0625 8.8125 C-0.05798828 7.96751953 -0.05347656 7.12253906 -0.04882812 6.25195312 C-0.03705403 4.16793845 -0.0191189 2.08396023 0 0 Z " fill="#898C97" transform="translate(1799,756)"/>
<path d="M0 0 C0.33 1.32 0.66 2.64 1 4 C0.34 4 -0.32 4 -1 4 C-1.19916016 5.13888672 -1.19916016 5.13888672 -1.40234375 6.30078125 C-1.57894531 7.29464844 -1.75554687 8.28851562 -1.9375 9.3125 C-2.11152344 10.29863281 -2.28554687 11.28476562 -2.46484375 12.30078125 C-3 15 -3 15 -4 18 C-4.66 18 -5.32 18 -6 18 C-6.33 20.31 -6.66 22.62 -7 25 C-7.33 25 -7.66 25 -8 25 C-8.38787235 19.62881117 -7.06556147 15.709033 -5.125 10.8125 C-4.85558594 10.10158203 -4.58617187 9.39066406 -4.30859375 8.65820312 C-3.09775122 5.51887237 -1.87301042 2.80951563 0 0 Z " fill="#ABAEB9" transform="translate(1896,749)"/>
<path d="M0 0 C0.66 0 1.32 0 2 0 C1.67 1.65 1.34 3.3 1 5 C0.34 5 -0.32 5 -1 5 C-1 5.99 -1 6.98 -1 8 C-2.98 8 -4.96 8 -7 8 C-6.67 6.02 -6.34 4.04 -6 2 C-4.7934375 1.7834375 -4.7934375 1.7834375 -3.5625 1.5625 C-1.07896294 1.25864751 -1.07896294 1.25864751 0 0 Z " fill="#C3C3CA" transform="translate(1927,511)"/>
<path d="M0 0 C0.66 0.33 1.32 0.66 2 1 C-2.46351289 6.22325977 -7.0744893 11.20922972 -12 16 C-12.33 15.01 -12.66 14.02 -13 13 C-8.71 8.71 -4.42 4.42 0 0 Z " fill="#3A3F4C" transform="translate(2340,594)"/>
<path d="M0 0 C3.46189608 1.73094804 4.15646915 5.78450127 5.5859375 9.23828125 C7.3914338 12.76448534 9.4328588 15.2164294 13 17 C12.67 17.99 12.34 18.98 12 20 C8.11298585 18.70432862 7.55244726 17.1362801 5.4375 13.6875 C4.83808594 12.72199219 4.23867187 11.75648438 3.62109375 10.76171875 C0 4.59277108 0 4.59277108 0 0 Z " fill="#CBCED6" transform="translate(1852,670)"/>
<path d="M0 0 C0.66 0.66 1.32 1.32 2 2 C1.75492851 7.14650136 -0.2710426 11.68515792 -3 16 C-3.66 16.33 -4.32 16.66 -5 17 C-1.92482916 5.47835991 -1.92482916 5.47835991 0 0 Z " fill="#CFD0D7" transform="translate(1977,519)"/>
<path d="M0 0 C1 2 1 2 0.3515625 4.078125 C-1 6 -1 6 -3.1640625 6.609375 C-3.97617188 6.65578125 -4.78828125 6.7021875 -5.625 6.75 C-6.44226562 6.80671875 -7.25953125 6.8634375 -8.1015625 6.921875 C-8.72804688 6.94765625 -9.35453125 6.9734375 -10 7 C-9.5 4.625 -9.5 4.625 -8 2 C-5.33474712 0.91758097 -2.8592085 0.50727893 0 0 Z " fill="#727482" transform="translate(1925,526)"/>
<path d="M0 0 C0.33 0 0.66 0 1 0 C0.67 8.58 0.34 17.16 0 26 C-0.33 26 -0.66 26 -1 26 C-1.22396532 23.16714131 -1.42949305 20.33485076 -1.625 17.5 C-1.68945312 16.70851563 -1.75390625 15.91703125 -1.8203125 15.1015625 C-2.1797752 9.61975629 -1.58197141 5.26518728 0 0 Z " fill="#5E626F" transform="translate(1850,641)"/>
<path d="M0 0 C0 0.66 0 1.32 0 2 C1.65 2 3.3 2 5 2 C4.67 2.99 4.34 3.98 4 5 C0.7 5 -2.6 5 -6 5 C-3.5 0 -3.5 0 0 0 Z " fill="#B9BAC3" transform="translate(2188,503)"/>
<path d="M0 0 C1.54794214 3.09588428 0.24648304 5.19893011 -0.75 8.4375 C-1.26820312 10.16806641 -1.26820312 10.16806641 -1.796875 11.93359375 C-2.90548435 14.75910785 -3.67365612 16.13491395 -6 18 C-3.10933941 5.33029613 -3.10933941 5.33029613 0 0 Z " fill="#6E727E" transform="translate(1973,529)"/>
<path d="M0 0 C1.65 0.33 3.3 0.66 5 1 C4.67 1.99 4.34 2.98 4 4 C3.34 4 2.68 4 2 4 C1.67 5.32 1.34 6.64 1 8 C-0.32 7.67 -1.64 7.34 -3 7 C-2.01 4.69 -1.02 2.38 0 0 Z " fill="#787A8D" transform="translate(2190,490)"/>
<path d="M0 0 C0 3.29657856 -0.74333269 5.16364428 -2 8.1875 C-2.37125 9.08855469 -2.7425 9.98960937 -3.125 10.91796875 C-3.41375 11.60503906 -3.7025 12.29210937 -4 13 C-4.33 13 -4.66 13 -5 13 C-5.29359745 9.9465865 -5.4451258 7.04256578 -5 4 C-2.5 1.4375 -2.5 1.4375 0 0 Z " fill="#696E7D" transform="translate(1895,749)"/>
<path d="M0 0 C2.05078125 0.03255208 4.1015625 0.06510417 6.15234375 0.09765625 C5.49234375 1.41765625 4.83234375 2.73765625 4.15234375 4.09765625 C3.49234375 4.09765625 2.83234375 4.09765625 2.15234375 4.09765625 C1.49234375 4.75765625 0.83234375 5.41765625 0.15234375 6.09765625 C-0.83765625 4.44765625 -1.82765625 2.79765625 -2.84765625 1.09765625 C-1.84765625 0.09765625 -1.84765625 0.09765625 0 0 Z " fill="#E5E5E9" transform="translate(2183.84765625,510.90234375)"/>
<path d="M0 0 C0.66 0.33 1.32 0.66 2 1 C-1.67832017 5.52615993 -5.41086363 9.39424999 -10 13 C-10.66 12.67 -11.32 12.34 -12 12 C-8.04 8.04 -4.08 4.08 0 0 Z " fill="#474C59" transform="translate(1035,602)"/>
<path d="M0 0 C2 3 2 3 3 5 C3.66 5.33 4.32 5.66 5 6 C4.34 7.32 3.68 8.64 3 10 C2.7525 9.38125 2.505 8.7625 2.25 8.125 C0.79371361 5.64931313 -0.37812506 5.04874998 -3 4 C-2.67 3.01 -2.34 2.02 -2 1 C-1.34 0.67 -0.68 0.34 0 0 Z " fill="#4A4E5E" transform="translate(1920,499)"/>
<path d="M0 0 C-1.55367366 1.01365893 -3.11837836 2.01042256 -4.6875 3 C-5.99267578 3.8353125 -5.99267578 3.8353125 -7.32421875 4.6875 C-10.16973337 6.08325608 -11.8788594 6.26993648 -15 6 C-10.83385363 2.52821136 -5.41664933 -1.80554978 0 0 Z " fill="#464B56" transform="translate(164,736)"/>
<path d="M0 0 C0.99 0 1.98 0 3 0 C4.26237731 2.52475462 4.09856404 4.31200466 4.0625 7.125 C4.05347656 8.03507813 4.04445313 8.94515625 4.03515625 9.8828125 C4.02355469 10.58148437 4.01195313 11.28015625 4 12 C3.67 12 3.34 12 3 12 C3 9.03 3 6.06 3 3 C2.01 3.66 1.02 4.32 0 5 C-0.99 4.67 -1.98 4.34 -3 4 C-1.6875 2 -1.6875 2 0 0 Z " fill="#414853" transform="translate(3246,736)"/>
<path d="M0 0 C-0.33 1.32 -0.66 2.64 -1 4 C-3.97 3.67 -6.94 3.34 -10 3 C-8.0130571 -0.97388579 -3.91761109 -0.08705802 0 0 Z " fill="#595D6D" transform="translate(1925,531)"/>
<path d="M0 0 C0.33 0.66 0.66 1.32 1 2 C-0.423125 2.804375 -0.423125 2.804375 -1.875 3.625 C-5.36739592 6.2792209 -6.04735876 7.80837855 -7 12 C-8.21346851 8.35959446 -8.21346851 6.64040554 -7 3 C-4.71829404 1.52263643 -2.61853813 0.85697612 0 0 Z " fill="#454B5C" transform="translate(1896,747)"/>
<path d="M0 0 C0.33 0.66 0.66 1.32 1 2 C-0.80831392 5.61662784 -3.05278838 8.25604436 -6 11 C-6.66 10.67 -7.32 10.34 -8 10 C-5.36 6.7 -2.72 3.4 0 0 Z " fill="#404651" transform="translate(595,659)"/>
<path d="M0 0 C0.99 0 1.98 0 3 0 C2.1875 2.9375 2.1875 2.9375 1 6 C0.01 6.33 -0.98 6.66 -2 7 C-2.33 7.99 -2.66 8.98 -3 10 C-2.49287967 6.28111761 -1.88391785 3.26545761 0 0 Z " fill="#7E818D" transform="translate(1855,625)"/>
<path d="M0 0 C0.66 0 1.32 0 2 0 C1.01 3.3 0.02 6.6 -1 10 C-1.66 9.67 -2.32 9.34 -3 9 C-2.5020163 5.26512223 -2.12508244 3.18762365 0 0 Z " fill="#ACACB6" transform="translate(1981,510)"/>
<path d="M0 0 C0.66 0 1.32 0 2 0 C1.8125 1.8125 1.8125 1.8125 1 4 C-3.17857143 7 -3.17857143 7 -6 7 C-5.67 5.68 -5.34 4.36 -5 3 C-4.34 3 -3.68 3 -3 3 C-2.505 2.505 -2.01 2.01 -1.5 1.5 C-1.005 1.005 -0.51 0.51 0 0 Z " fill="#D4D5DB" transform="translate(1928,507)"/>
<path d="M0 0 C1.875 0.1875 1.875 0.1875 4 1 C5.25 3.5625 5.25 3.5625 6 6 C5.34 6.66 4.68 7.32 4 8 C4 7.01 4 6.02 4 5 C2.02 4.34 0.04 3.68 -2 3 C-1.34 2.01 -0.68 1.02 0 0 Z " fill="#6C6E7D" transform="translate(1917,504)"/>
<path d="M0 0 C0.66 0.33 1.32 0.66 2 1 C1.34 2.98 0.68 4.96 0 7 C-1.32 7 -2.64 7 -4 7 C-3.39816251 4.97954558 -2.72693904 2.97888961 -2 1 C-1.34 0.67 -0.68 0.34 0 0 Z " fill="#656C7A" transform="translate(2135,475)"/>
<path d="M0 0 C0.33 0.66 0.66 1.32 1 2 C0.06421005 4.35981813 -0.93347808 6.69631264 -2 9 C-2.99 8.67 -3.98 8.34 -5 8 C-3.8141763 4.62496331 -2.72426311 2.35277269 0 0 Z " fill="#5E6370" transform="translate(2144,461)"/>
<path d="M0 0 C2 1.125 2 1.125 4 3 C4.25 6.1875 4.25 6.1875 4 9 C3.67 7.68 3.34 6.36 3 5 C1.68 5 0.36 5 -1 5 C-1.33 4.01 -1.66 3.02 -2 2 C-1.34 1.34 -0.68 0.68 0 0 Z " fill="#BEBFC6" transform="translate(1915,511)"/>
<path d="M0 0 C2.97 0 5.94 0 9 0 C8.67 0.66 8.34 1.32 8 2 C5.93359375 2.6328125 5.93359375 2.6328125 3.4375 3.125 C2.19806641 3.37636719 2.19806641 3.37636719 0.93359375 3.6328125 C0.29550781 3.75398437 -0.34257813 3.87515625 -1 4 C-0.67 2.68 -0.34 1.36 0 0 Z " fill="#878995" transform="translate(1917,525)"/>
<path d="M0 0 C0.66 0.33 1.32 0.66 2 1 C-0.97 3.64 -3.94 6.28 -7 9 C-7.99 8.67 -8.98 8.34 -10 8 C-6.7 5.36 -3.4 2.72 0 0 Z " fill="#424855" transform="translate(2060,316)"/>
<path d="M0 0 C1.9375 0.6875 1.9375 0.6875 4 2 C4.875 4.5 4.875 4.5 5 7 C4.34 7.66 3.68 8.32 3 9 C2.71125 8.236875 2.4225 7.47375 2.125 6.6875 C1.03730987 3.84970692 1.03730987 3.84970692 -1 1 C-0.67 0.67 -0.34 0.34 0 0 Z " fill="#A1A3AC" transform="translate(1916,509)"/>
<path d="M0 0 C0.33 0.66 0.66 1.32 1 2 C0.3125 4.0625 0.3125 4.0625 -1 6 C-3.125 6.75 -3.125 6.75 -5 7 C-4.1875 4.0625 -4.1875 4.0625 -3 1 C-2.01 0.67 -1.02 0.34 0 0 Z " fill="#B2B6BF" transform="translate(2138,469)"/>
<path d="M0 0 C0.66 0 1.32 0 2 0 C1.37240135 2.92879371 0.41377341 5.36095629 -1 8 C-1.66 8 -2.32 8 -3 8 C-1.125 1.125 -1.125 1.125 0 0 Z " fill="#676977" transform="translate(1984,502)"/>
<path d="M0 0 C0 0.66 0 1.32 0 2 C-3.3 2 -6.6 2 -10 2 C-9 0 -9 0 -7.25 -0.6875 C-4.60760177 -1.05449975 -2.57327078 -0.64331769 0 0 Z " fill="#9092A1" transform="translate(2196,498)"/>
<path d="M0 0 C0.66 0.33 1.32 0.66 2 1 C0.02 3.31 -1.96 5.62 -4 8 C-4.66 7.67 -5.32 7.34 -6 7 C-4.02 4.69 -2.04 2.38 0 0 Z " fill="#393E4B" transform="translate(1228,983)"/>
<path d="M0 0 C-4.75 2.875 -4.75 2.875 -7 4 C-7 3.01 -7 2.02 -7 1 C-7.66 0.67 -8.32 0.34 -9 0 C-5.62182575 -0.84454356 -3.32534757 -1.10844919 0 0 Z " fill="#DCDFE4" transform="translate(1919,735)"/>
<path d="M0 0 C0 0.99 0 1.98 0 3 C-0.66 2.67 -1.32 2.34 -2 2 C-1.34 1.34 -0.68 0.68 0 0 Z M-3 3 C-3 6 -3 6 -5 9 C-5.66 9 -6.32 9 -7 9 C-5.84826645 6.53199953 -4.95216435 4.95216435 -3 3 Z " fill="#333844" transform="translate(794,623)"/>
<path d="M0 0 C0.99 0 1.98 0 3 0 C2.67 1.65 2.34 3.3 2 5 C0.68 5.33 -0.64 5.66 -2 6 C-1.34 4.02 -0.68 2.04 0 0 Z " fill="#454A58" transform="translate(1856,620)"/>
<path d="M0 0 C0.33 0.99 0.66 1.98 1 3 C-0.9375 6.1875 -0.9375 6.1875 -3 9 C-3.33 8.34 -3.66 7.68 -4 7 C-3.0625 4.375 -3.0625 4.375 -2 2 C-1.34 2 -0.68 2 0 2 C0 1.34 0 0.68 0 0 Z " fill="#DDE0E5" transform="translate(1976,527)"/>
</svg>
