<?xml version="1.0" encoding="UTF-8"?>
<svg version="1.1" xmlns="http://www.w3.org/2000/svg" width="3320" height="1280">
<path d="M0,0 L15,0 L36,3 L49,8 L59,14 L69,23 L76,34 L80,45 L82,54 L82,79 L78,96 L72,111 L64,125 L54,138 L50,138 L45,131 L34,123 L23,118 L9,115 L-20,115 L-45,120 L-66,127 L-89,137 L-112,149 L-131,161 L-147,172 L-166,186 L-182,199 L-193,208 L-203,217 L-211,224 L-224,236 L-251,263 L-258,271 L-271,285 L-280,296 L-290,307 L-301,321 L-312,334 L-325,351 L-339,369 L-353,388 L-367,408 L-378,424 L-407,467 L-417,483 L-430,503 L-446,529 L-463,557 L-480,586 L-496,614 L-510,639 L-524,664 L-540,693 L-557,725 L-569,747 L-586,779 L-600,805 L-613,828 L-629,857 L-642,879 L-652,896 L-665,917 L-676,934 L-694,961 L-706,978 L-715,990 L-726,1004 L-737,1017 L-744,1025 L-753,1035 L-766,1048 L-777,1057 L-791,1067 L-807,1075 L-821,1079 L-827,1080 L-840,1080 L-856,1076 L-866,1070 L-874,1063 L-884,1049 L-891,1034 L-896,1017 L-899,995 L-899,955 L-896,928 L-891,899 L-882,860 L-871,819 L-855,765 L-835,702 L-818,648 L-806,608 L-796,570 L-788,534 L-781,491 L-778,464 L-777,450 L-777,399 L-780,373 L-785,349 L-792,328 L-800,312 L-806,302 L-813,293 L-822,283 L-835,273 L-852,264 L-873,257 L-891,254 L-909,253 L-929,254 L-955,258 L-981,265 L-1001,272 L-1021,281 L-1046,294 L-1064,305 L-1081,317 L-1094,327 L-1107,338 L-1117,347 L-1129,358 L-1137,366 L-1144,374 L-1156,387 L-1167,401 L-1180,418 L-1195,441 L-1204,456 L-1213,472 L-1227,500 L-1240,532 L-1249,560 L-1255,586 L-1259,611 L-1261,632 L-1261,674 L-1258,698 L-1252,723 L-1244,743 L-1234,761 L-1224,774 L-1214,785 L-1200,796 L-1186,804 L-1169,810 L-1155,813 L-1122,813 L-1105,810 L-1088,805 L-1068,796 L-1050,785 L-1037,775 L-1023,763 L-1013,753 L-1004,742 L-994,729 L-984,714 L-972,691 L-964,670 L-958,649 L-955,632 L-954,623 L-954,604 L-957,585 L-961,573 L-968,560 L-975,552 L-986,545 L-994,542 L-1012,542 L-1025,546 L-1035,551 L-1038,553 L-1042,553 L-1045,544 L-1045,533 L-1042,525 L-1036,518 L-1026,511 L-1013,505 L-1000,502 L-974,502 L-957,506 L-940,514 L-926,525 L-917,536 L-908,552 L-901,573 L-898,589 L-897,599 L-897,624 L-900,646 L-906,669 L-914,690 L-926,713 L-940,734 L-949,746 L-960,759 L-969,769 L-987,787 L-998,796 L-1013,808 L-1028,818 L-1048,830 L-1073,842 L-1094,849 L-1116,854 L-1142,857 L-1159,857 L-1179,855 L-1201,850 L-1219,844 L-1240,834 L-1258,822 L-1269,813 L-1279,804 L-1287,796 L-1298,782 L-1310,764 L-1322,741 L-1330,719 L-1336,694 L-1339,673 L-1340,660 L-1340,621 L-1338,598 L-1333,570 L-1327,547 L-1318,521 L-1305,491 L-1292,466 L-1278,443 L-1263,421 L-1254,409 L-1243,395 L-1231,381 L-1222,371 L-1210,358 L-1196,344 L-1188,337 L-1177,327 L-1163,316 L-1148,304 L-1129,291 L-1116,282 L-1095,269 L-1077,259 L-1054,247 L-1032,237 L-1001,225 L-970,215 L-946,209 L-922,205 L-904,203 L-889,202 L-857,202 L-834,204 L-811,208 L-790,214 L-769,223 L-754,232 L-741,242 L-729,253 L-720,263 L-711,276 L-701,294 L-693,313 L-687,333 L-682,357 L-679,386 L-679,442 L-682,473 L-687,507 L-694,542 L-709,602 L-721,645 L-737,696 L-759,762 L-771,798 L-785,841 L-798,887 L-806,923 L-810,951 L-811,961 L-811,981 L-807,993 L-802,998 L-793,999 L-783,994 L-769,980 L-758,966 L-747,951 L-729,924 L-714,899 L-701,877 L-689,856 L-676,832 L-662,806 L-644,772 L-632,749 L-622,730 L-605,697 L-587,662 L-573,634 L-563,615 L-542,574 L-532,555 L-517,527 L-501,497 L-488,474 L-473,447 L-457,420 L-440,391 L-430,375 L-415,351 L-402,331 L-394,319 L-381,300 L-369,283 L-355,264 L-339,243 L-328,229 L-319,218 L-308,205 L-296,191 L-285,179 L-276,169 L-269,162 L-262,154 L-246,138 L-238,131 L-230,123 L-222,116 L-208,104 L-195,93 L-179,81 L-166,71 L-142,55 L-121,42 L-93,27 L-66,15 L-42,7 L-20,2 Z " fill="#000000" transform="translate(1340,4)"/>
<path d="M0,0 L18,1 L35,5 L49,12 L61,23 L68,34 L72,44 L74,53 L74,79 L70,96 L62,115 L52,131 L45,139 L42,138 L35,129 L25,122 L12,117 L1,115 L-26,115 L-44,118 L-65,124 L-89,134 L-106,142 L-127,154 L-154,172 L-173,186 L-187,197 L-198,206 L-213,219 L-228,233 L-263,268 L-270,276 L-280,287 L-289,298 L-298,308 L-309,322 L-322,338 L-332,351 L-348,372 L-360,389 L-374,409 L-385,425 L-401,449 L-416,472 L-428,491 L-444,517 L-461,545 L-480,577 L-495,603 L-509,628 L-522,651 L-537,679 L-549,701 L-564,730 L-576,752 L-591,781 L-603,803 L-619,833 L-632,856 L-644,878 L-657,900 L-671,923 L-685,945 L-698,964 L-712,984 L-728,1005 L-737,1016 L-749,1030 L-756,1037 L-761,1042 L-772,1053 L-785,1063 L-798,1071 L-812,1077 L-828,1080 L-839,1080 L-855,1076 L-866,1069 L-876,1059 L-884,1046 L-889,1035 L-893,1023 L-897,999 L-898,973 L-896,944 L-892,916 L-884,876 L-873,832 L-856,773 L-843,730 L-834,702 L-810,624 L-802,596 L-791,552 L-783,509 L-778,472 L-776,446 L-776,404 L-779,372 L-784,346 L-792,322 L-803,301 L-812,289 L-816,285 L-816,283 L-820,281 L-828,274 L-843,265 L-858,259 L-875,255 L-882,254 L-916,254 L-941,258 L-966,265 L-991,275 L-1007,283 L-1025,293 L-1043,305 L-1059,317 L-1070,326 L-1082,337 L-1090,344 L-1102,356 L-1109,364 L-1122,379 L-1135,396 L-1148,414 L-1160,433 L-1170,450 L-1184,477 L-1195,502 L-1206,532 L-1215,563 L-1221,594 L-1224,619 L-1225,633 L-1225,670 L-1223,692 L-1218,717 L-1210,741 L-1198,764 L-1189,776 L-1180,786 L-1170,795 L-1157,803 L-1146,808 L-1132,812 L-1125,813 L-1100,813 L-1080,809 L-1065,804 L-1044,793 L-1030,783 L-1019,774 L-1002,757 L-989,740 L-980,727 L-968,706 L-959,686 L-951,662 L-946,638 L-944,619 L-944,605 L-946,587 L-951,570 L-957,559 L-966,549 L-974,544 L-985,541 L-993,541 L-1005,544 L-1019,551 L-1024,553 L-1027,548 L-1028,544 L-1028,533 L-1024,523 L-1015,514 L-1001,506 L-987,502 L-970,501 L-954,503 L-938,509 L-925,518 L-915,528 L-905,543 L-898,559 L-893,578 L-891,591 L-890,613 L-892,636 L-897,661 L-906,688 L-915,708 L-925,726 L-937,744 L-948,758 L-960,772 L-985,797 L-996,806 L-1013,819 L-1028,829 L-1046,839 L-1066,847 L-1087,853 L-1105,856 L-1140,856 L-1159,853 L-1179,847 L-1194,840 L-1207,833 L-1221,823 L-1235,811 L-1243,803 L-1254,789 L-1264,775 L-1276,753 L-1284,734 L-1290,715 L-1295,691 L-1298,665 L-1298,616 L-1295,590 L-1290,564 L-1283,538 L-1273,509 L-1260,479 L-1249,457 L-1233,430 L-1219,409 L-1205,390 L-1196,379 L-1185,366 L-1174,354 L-1160,339 L-1153,332 L-1145,325 L-1132,313 L-1121,304 L-1106,292 L-1088,279 L-1068,266 L-1044,252 L-1023,241 L-998,230 L-973,221 L-944,212 L-922,207 L-900,204 L-874,202 L-853,202 L-830,204 L-808,208 L-788,214 L-772,221 L-756,230 L-742,241 L-728,255 L-716,271 L-707,287 L-699,304 L-691,328 L-685,357 L-682,384 L-682,443 L-685,475 L-689,503 L-696,541 L-706,584 L-718,630 L-732,677 L-749,729 L-763,772 L-778,818 L-794,873 L-803,910 L-809,945 L-811,966 L-811,978 L-808,990 L-804,996 L-799,999 L-790,998 L-782,993 L-777,989 L-770,981 L-758,966 L-744,946 L-730,924 L-713,896 L-697,868 L-683,842 L-671,820 L-651,781 L-641,762 L-620,721 L-590,661 L-582,645 L-571,622 L-561,603 L-543,567 L-533,548 L-521,525 L-509,503 L-494,475 L-481,452 L-468,429 L-452,402 L-433,370 L-418,347 L-408,331 L-398,316 L-383,294 L-371,277 L-358,259 L-348,246 L-337,232 L-329,222 L-320,211 L-309,198 L-297,184 L-285,171 L-276,161 L-242,127 L-234,120 L-223,110 L-212,101 L-199,90 L-187,81 L-169,68 L-145,52 L-130,43 L-108,31 L-83,19 L-59,10 L-37,4 L-18,1 Z " fill="#000000" transform="translate(2970,4)"/>
<path d="M0,0 L13,2 L19,11 L31,36 L41,53 L51,68 L65,87 L77,101 L91,116 L101,126 L109,133 L105,137 L83,150 L78,149 L52,134 L31,120 L19,111 L9,103 L-5,91 L-25,71 L-35,58 L-43,42 L-44,38 L-44,27 L-41,19 L-34,11 L-20,4 L-9,1 Z " fill="#000000" transform="translate(1049,414)"/>
<path d="M0,0 L11,0 L21,3 L27,8 L35,33 L41,49 L50,68 L61,86 L70,97 L79,107 L93,121 L102,128 L100,132 L89,141 L80,148 L73,148 L58,143 L43,135 L29,125 L17,114 L8,104 L-3,88 L-10,75 L-10,73 L-18,80 L-30,92 L-38,99 L-56,113 L-75,125 L-93,135 L-112,143 L-131,148 L-135,146 L-145,133 L-152,123 L-152,121 L-131,110 L-112,98 L-95,86 L-81,75 L-68,64 L-56,53 L-33,30 L-24,19 L-14,6 L-5,1 Z " fill="#000000" transform="translate(2925,419)"/>
<path d="M0,0 L19,0 L32,4 L42,11 L50,20 L55,31 L56,36 L56,54 L52,67 L48,75 L40,85 L27,94 L14,98 L-1,99 L-15,96 L-26,90 L-34,82 L-39,74 L-42,65 L-43,60 L-43,45 L-40,33 L-35,23 L-26,13 L-19,7 L-8,2 Z " fill="#000000" transform="translate(2634,466)"/>
<path d="M0,0 L14,0 L29,2 L42,6 L53,12 L63,21 L70,32 L75,46 L77,62 L76,80 L72,99 L66,115 L58,131 L48,146 L36,160 L25,172 L18,179 L7,188 L-5,198 L-29,214 L-53,228 L-75,239 L-100,249 L-124,257 L-151,264 L-150,282 L-146,300 L-141,312 L-133,323 L-125,330 L-113,336 L-102,339 L-93,340 L-79,340 L-59,337 L-43,332 L-27,325 L-12,317 L4,306 L14,298 L28,286 L46,268 L55,257 L67,242 L80,224 L92,205 L100,184 L112,159 L123,140 L133,125 L147,106 L159,92 L170,80 L188,62 L199,53 L213,42 L231,30 L249,20 L270,11 L289,5 L310,1 L331,0 L349,2 L362,6 L373,12 L382,21 L387,29 L391,41 L392,47 L392,64 L389,78 L384,91 L377,104 L368,115 L361,122 L350,129 L341,133 L329,135 L316,134 L308,131 L299,125 L298,121 L307,114 L316,105 L324,91 L328,80 L329,75 L329,64 L326,56 L320,51 L312,49 L304,49 L290,52 L278,57 L265,65 L255,73 L245,82 L232,95 L219,112 L208,129 L198,147 L188,168 L179,193 L173,215 L169,237 L168,247 L168,272 L171,289 L176,303 L183,314 L187,318 L187,320 L191,322 L202,329 L216,333 L225,334 L238,334 L252,332 L269,327 L290,317 L305,307 L315,299 L325,290 L337,279 L344,271 L356,257 L369,239 L377,227 L388,210 L401,189 L406,194 L418,208 L418,223 L408,242 L395,262 L381,282 L370,296 L359,309 L352,317 L340,330 L323,346 L310,357 L291,371 L271,383 L255,391 L236,398 L217,403 L203,405 L171,405 L151,401 L135,395 L124,389 L111,379 L104,372 L94,358 L86,341 L81,325 L78,308 L76,283 L65,297 L53,311 L41,324 L24,340 L11,351 L-5,363 L-20,373 L-38,383 L-55,391 L-75,398 L-96,403 L-110,405 L-144,405 L-162,402 L-177,397 L-193,389 L-206,379 L-215,370 L-224,357 L-232,341 L-237,324 L-240,304 L-241,292 L-254,311 L-265,325 L-274,336 L-283,346 L-290,354 L-304,368 L-318,379 L-332,389 L-349,398 L-365,403 L-376,405 L-395,405 L-408,402 L-420,396 L-430,387 L-436,380 L-443,366 L-447,352 L-449,339 L-449,306 L-446,281 L-439,248 L-428,211 L-416,176 L-400,135 L-385,100 L-369,66 L-357,41 L-345,17 L-337,2 L-332,3 L-305,15 L-276,29 L-273,31 L-274,36 L-287,62 L-302,95 L-316,126 L-332,165 L-347,205 L-356,232 L-363,258 L-367,280 L-368,290 L-368,306 L-365,318 L-360,325 L-351,329 L-336,329 L-323,324 L-311,317 L-297,305 L-287,295 L-278,284 L-265,267 L-254,251 L-241,231 L-226,205 L-218,184 L-206,159 L-196,141 L-182,120 L-170,104 L-161,93 L-150,81 L-141,71 L-133,64 L-120,52 L-107,42 L-94,33 L-79,24 L-63,16 L-43,8 L-24,3 L-12,1 Z M-16,48 L-30,51 L-46,59 L-58,68 L-68,77 L-80,89 L-91,103 L-102,118 L-114,138 L-128,165 L-139,191 L-145,210 L-148,222 L-148,228 L-138,225 L-117,217 L-94,206 L-74,194 L-55,180 L-40,167 L-24,151 L-13,137 L-3,122 L5,104 L9,90 L10,85 L10,67 L7,59 L1,52 L-5,49 Z " fill="#000000" transform="translate(2902,605)"/>
<path d="M0,0 L40,0 L50,1 L53,3 L51,39 L50,41 L20,43 L-4,47 L-23,52 L-44,60 L-66,71 L-85,83 L-97,92 L-107,100 L-119,111 L-137,129 L-146,140 L-156,153 L-170,174 L-182,195 L-191,215 L-200,242 L-205,267 L-206,278 L-206,288 L-204,303 L-199,315 L-193,322 L-184,327 L-172,329 L-159,328 L-144,323 L-130,315 L-114,303 L-101,291 L-86,276 L-77,265 L-67,253 L-53,234 L-33,204 L-19,181 L-7,160 L7,134 L21,107 L34,82 L40,84 L66,99 L83,109 L86,111 L83,120 L68,154 L53,193 L44,219 L36,245 L29,275 L27,292 L27,305 L30,317 L36,325 L41,327 L54,327 L70,319 L80,311 L91,300 L102,286 L114,270 L128,249 L140,229 L152,207 L159,186 L169,162 L177,146 L187,128 L201,107 L211,94 L222,81 L236,66 L252,51 L269,38 L284,28 L309,15 L330,7 L349,2 L363,0 L399,0 L412,2 L413,15 L413,40 L412,41 L376,42 L360,45 L341,52 L325,61 L312,71 L305,78 L300,83 L291,92 L277,111 L262,136 L252,157 L242,184 L234,211 L230,232 L228,250 L228,272 L230,287 L235,303 L242,315 L251,324 L261,329 L269,331 L289,331 L305,326 L315,320 L325,312 L339,298 L351,281 L365,254 L374,230 L380,209 L385,181 L386,171 L386,141 L383,119 L379,102 L378,95 L387,89 L398,84 L419,76 L424,75 L432,75 L437,79 L443,93 L448,112 L450,126 L450,163 L446,189 L439,216 L429,243 L417,269 L404,293 L390,314 L380,327 L368,341 L346,363 L332,374 L317,384 L302,392 L283,399 L267,403 L259,404 L228,404 L213,401 L198,396 L184,388 L174,380 L165,371 L156,358 L148,341 L143,323 L141,311 L139,294 L127,312 L113,331 L104,342 L95,352 L88,360 L77,371 L66,380 L52,390 L36,398 L20,403 L14,404 L-6,404 L-18,401 L-29,395 L-39,386 L-47,372 L-52,356 L-54,338 L-54,325 L-52,305 L-47,279 L-61,297 L-71,310 L-83,324 L-97,339 L-115,357 L-126,366 L-139,376 L-153,385 L-170,394 L-191,401 L-207,404 L-231,404 L-248,400 L-264,392 L-274,384 L-282,375 L-289,363 L-295,345 L-297,334 L-298,323 L-298,301 L-295,277 L-289,252 L-283,233 L-273,208 L-259,180 L-246,159 L-234,142 L-223,128 L-211,114 L-197,99 L-188,90 L-180,83 L-166,71 L-150,59 L-135,49 L-115,37 L-100,29 L-72,17 L-51,10 L-23,3 Z " fill="#000000" transform="translate(1107,606)"/>
<path d="M0,0 L10,0 L22,3 L31,8 L37,13 L44,24 L47,34 L47,52 L44,62 L38,73 L32,80 L21,88 L11,92 L1,94 L-11,94 L-23,91 L-34,84 L-41,76 L-46,66 L-48,56 L-48,46 L-45,34 L-39,22 L-32,14 L-22,7 L-11,2 Z " fill="#000000" transform="translate(2758,1061)"/>
</svg>
